<?xml version="1.0" encoding="utf-8" standalone="no"?>
<!DOCTYPE svg PUBLIC "-//W3C//DTD SVG 1.1//EN"
  "http://www.w3.org/Graphics/SVG/1.1/DTD/svg11.dtd">
<svg xmlns:xlink="http://www.w3.org/1999/xlink" width="936pt" height="288pt" viewBox="0 0 936 288" xmlns="http://www.w3.org/2000/svg" version="1.1">
 <metadata>
  <rdf:RDF xmlns:dc="http://purl.org/dc/elements/1.1/" xmlns:cc="http://creativecommons.org/ns#" xmlns:rdf="http://www.w3.org/1999/02/22-rdf-syntax-ns#">
   <cc:Work>
    <dc:type rdf:resource="http://purl.org/dc/dcmitype/StillImage"/>
    <dc:date>2026-01-11T10:49:41.293454</dc:date>
    <dc:format>image/svg+xml</dc:format>
    <dc:creator>
     <cc:Agent>
      <dc:title>Matplotlib v3.10.7, https://matplotlib.org/</dc:title>
     </cc:Agent>
    </dc:creator>
   </cc:Work>
  </rdf:RDF>
 </metadata>
 <defs>
  <style type="text/css">*{stroke-linejoin: round; stroke-linecap: butt}</style>
 </defs>
 <g id="figure_1">
  <g id="patch_1">
   <path d="M 0 288 
L 936 288 
L 936 0 
L 0 0 
z
" style="fill: #ffffff"/>
  </g>
  <g id="axes_1">
   <g id="patch_2">
    <path d="M 117 256.32 
L 330.352941 256.32 
L 330.352941 34.56 
L 117 34.56 
z
" style="fill: #eeeeee"/>
   </g>
   <g id="matplotlib.axis_1">
    <g id="xtick_1">
     <g id="line2d_1">
      <path d="M 136.395722 256.32 
L 136.395722 34.56 
" clip-path="url(#p88321d9ec2)" style="fill: none; stroke-dasharray: 1.85,0.8; stroke-dashoffset: 0; stroke: #b2b2b2; stroke-width: 0.5"/>
     </g>
     <g id="line2d_2">
      <defs>
       <path id="m848f95face" d="M 0 0 
L 0 -3.5 
" style="stroke: #000000; stroke-width: 0.8"/>
      </defs>
      <g>
       <use xlink:href="#m848f95face" x="136.395722" y="256.32" style="stroke: #000000; stroke-width: 0.8"/>
      </g>
     </g>
     <g id="text_1">
      <!-- 400 -->
      <g transform="translate(124.943222 268.938125) scale(0.12 -0.12)">
       <defs>
        <path id="DejaVuSans-34" d="M 2419 4116 
L 825 1625 
L 2419 1625 
L 2419 4116 
z
M 2253 4666 
L 3047 4666 
L 3047 1625 
L 3713 1625 
L 3713 1100 
L 3047 1100 
L 3047 0 
L 2419 0 
L 2419 1100 
L 313 1100 
L 313 1709 
L 2253 4666 
z
" transform="scale(0.015625)"/>
        <path id="DejaVuSans-30" d="M 2034 4250 
Q 1547 4250 1301 3770 
Q 1056 3291 1056 2328 
Q 1056 1369 1301 889 
Q 1547 409 2034 409 
Q 2525 409 2770 889 
Q 3016 1369 3016 2328 
Q 3016 3291 2770 3770 
Q 2525 4250 2034 4250 
z
M 2034 4750 
Q 2819 4750 3233 4129 
Q 3647 3509 3647 2328 
Q 3647 1150 3233 529 
Q 2819 -91 2034 -91 
Q 1250 -91 836 529 
Q 422 1150 422 2328 
Q 422 3509 836 4129 
Q 1250 4750 2034 4750 
z
" transform="scale(0.015625)"/>
       </defs>
       <use xlink:href="#DejaVuSans-34"/>
       <use xlink:href="#DejaVuSans-30" transform="translate(63.623047 0)"/>
       <use xlink:href="#DejaVuSans-30" transform="translate(127.246094 0)"/>
      </g>
     </g>
    </g>
    <g id="xtick_2">
     <g id="line2d_3">
      <path d="M 184.885027 256.32 
L 184.885027 34.56 
" clip-path="url(#p88321d9ec2)" style="fill: none; stroke-dasharray: 1.85,0.8; stroke-dashoffset: 0; stroke: #b2b2b2; stroke-width: 0.5"/>
     </g>
     <g id="line2d_4">
      <g>
       <use xlink:href="#m848f95face" x="184.885027" y="256.32" style="stroke: #000000; stroke-width: 0.8"/>
      </g>
     </g>
     <g id="text_2">
      <!-- 500 -->
      <g transform="translate(173.432527 268.938125) scale(0.12 -0.12)">
       <defs>
        <path id="DejaVuSans-35" d="M 691 4666 
L 3169 4666 
L 3169 4134 
L 1269 4134 
L 1269 2991 
Q 1406 3038 1543 3061 
Q 1681 3084 1819 3084 
Q 2600 3084 3056 2656 
Q 3513 2228 3513 1497 
Q 3513 744 3044 326 
Q 2575 -91 1722 -91 
Q 1428 -91 1123 -41 
Q 819 9 494 109 
L 494 744 
Q 775 591 1075 516 
Q 1375 441 1709 441 
Q 2250 441 2565 725 
Q 2881 1009 2881 1497 
Q 2881 1984 2565 2268 
Q 2250 2553 1709 2553 
Q 1456 2553 1204 2497 
Q 953 2441 691 2322 
L 691 4666 
z
" transform="scale(0.015625)"/>
       </defs>
       <use xlink:href="#DejaVuSans-35"/>
       <use xlink:href="#DejaVuSans-30" transform="translate(63.623047 0)"/>
       <use xlink:href="#DejaVuSans-30" transform="translate(127.246094 0)"/>
      </g>
     </g>
    </g>
    <g id="xtick_3">
     <g id="line2d_5">
      <path d="M 233.374332 256.32 
L 233.374332 34.56 
" clip-path="url(#p88321d9ec2)" style="fill: none; stroke-dasharray: 1.85,0.8; stroke-dashoffset: 0; stroke: #b2b2b2; stroke-width: 0.5"/>
     </g>
     <g id="line2d_6">
      <g>
       <use xlink:href="#m848f95face" x="233.374332" y="256.32" style="stroke: #000000; stroke-width: 0.8"/>
      </g>
     </g>
     <g id="text_3">
      <!-- 600 -->
      <g transform="translate(221.921832 268.938125) scale(0.12 -0.12)">
       <defs>
        <path id="DejaVuSans-36" d="M 2113 2584 
Q 1688 2584 1439 2293 
Q 1191 2003 1191 1497 
Q 1191 994 1439 701 
Q 1688 409 2113 409 
Q 2538 409 2786 701 
Q 3034 994 3034 1497 
Q 3034 2003 2786 2293 
Q 2538 2584 2113 2584 
z
M 3366 4563 
L 3366 3988 
Q 3128 4100 2886 4159 
Q 2644 4219 2406 4219 
Q 1781 4219 1451 3797 
Q 1122 3375 1075 2522 
Q 1259 2794 1537 2939 
Q 1816 3084 2150 3084 
Q 2853 3084 3261 2657 
Q 3669 2231 3669 1497 
Q 3669 778 3244 343 
Q 2819 -91 2113 -91 
Q 1303 -91 875 529 
Q 447 1150 447 2328 
Q 447 3434 972 4092 
Q 1497 4750 2381 4750 
Q 2619 4750 2861 4703 
Q 3103 4656 3366 4563 
z
" transform="scale(0.015625)"/>
       </defs>
       <use xlink:href="#DejaVuSans-36"/>
       <use xlink:href="#DejaVuSans-30" transform="translate(63.623047 0)"/>
       <use xlink:href="#DejaVuSans-30" transform="translate(127.246094 0)"/>
      </g>
     </g>
    </g>
    <g id="xtick_4">
     <g id="line2d_7">
      <path d="M 281.863636 256.32 
L 281.863636 34.56 
" clip-path="url(#p88321d9ec2)" style="fill: none; stroke-dasharray: 1.85,0.8; stroke-dashoffset: 0; stroke: #b2b2b2; stroke-width: 0.5"/>
     </g>
     <g id="line2d_8">
      <g>
       <use xlink:href="#m848f95face" x="281.863636" y="256.32" style="stroke: #000000; stroke-width: 0.8"/>
      </g>
     </g>
     <g id="text_4">
      <!-- 700 -->
      <g transform="translate(270.411136 268.938125) scale(0.12 -0.12)">
       <defs>
        <path id="DejaVuSans-37" d="M 525 4666 
L 3525 4666 
L 3525 4397 
L 1831 0 
L 1172 0 
L 2766 4134 
L 525 4134 
L 525 4666 
z
" transform="scale(0.015625)"/>
       </defs>
       <use xlink:href="#DejaVuSans-37"/>
       <use xlink:href="#DejaVuSans-30" transform="translate(63.623047 0)"/>
       <use xlink:href="#DejaVuSans-30" transform="translate(127.246094 0)"/>
      </g>
     </g>
    </g>
    <g id="xtick_5">
     <g id="line2d_9">
      <path d="M 330.352941 256.32 
L 330.352941 34.56 
" clip-path="url(#p88321d9ec2)" style="fill: none; stroke-dasharray: 1.85,0.8; stroke-dashoffset: 0; stroke: #b2b2b2; stroke-width: 0.5"/>
     </g>
     <g id="line2d_10">
      <g>
       <use xlink:href="#m848f95face" x="330.352941" y="256.32" style="stroke: #000000; stroke-width: 0.8"/>
      </g>
     </g>
     <g id="text_5">
      <!-- 800 -->
      <g transform="translate(318.900441 268.938125) scale(0.12 -0.12)">
       <defs>
        <path id="DejaVuSans-38" d="M 2034 2216 
Q 1584 2216 1326 1975 
Q 1069 1734 1069 1313 
Q 1069 891 1326 650 
Q 1584 409 2034 409 
Q 2484 409 2743 651 
Q 3003 894 3003 1313 
Q 3003 1734 2745 1975 
Q 2488 2216 2034 2216 
z
M 1403 2484 
Q 997 2584 770 2862 
Q 544 3141 544 3541 
Q 544 4100 942 4425 
Q 1341 4750 2034 4750 
Q 2731 4750 3128 4425 
Q 3525 4100 3525 3541 
Q 3525 3141 3298 2862 
Q 3072 2584 2669 2484 
Q 3125 2378 3379 2068 
Q 3634 1759 3634 1313 
Q 3634 634 3220 271 
Q 2806 -91 2034 -91 
Q 1263 -91 848 271 
Q 434 634 434 1313 
Q 434 1759 690 2068 
Q 947 2378 1403 2484 
z
M 1172 3481 
Q 1172 3119 1398 2916 
Q 1625 2713 2034 2713 
Q 2441 2713 2670 2916 
Q 2900 3119 2900 3481 
Q 2900 3844 2670 4047 
Q 2441 4250 2034 4250 
Q 1625 4250 1398 4047 
Q 1172 3844 1172 3481 
z
" transform="scale(0.015625)"/>
       </defs>
       <use xlink:href="#DejaVuSans-38"/>
       <use xlink:href="#DejaVuSans-30" transform="translate(63.623047 0)"/>
       <use xlink:href="#DejaVuSans-30" transform="translate(127.246094 0)"/>
      </g>
     </g>
    </g>
    <g id="text_6">
     <!-- Wavelength -->
     <g transform="translate(180.962471 286.3755) scale(0.144 -0.144)">
      <defs>
       <path id="DejaVuSans-57" d="M 213 4666 
L 850 4666 
L 1831 722 
L 2809 4666 
L 3519 4666 
L 4500 722 
L 5478 4666 
L 6119 4666 
L 4947 0 
L 4153 0 
L 3169 4050 
L 2175 0 
L 1381 0 
L 213 4666 
z
" transform="scale(0.015625)"/>
       <path id="DejaVuSans-61" d="M 2194 1759 
Q 1497 1759 1228 1600 
Q 959 1441 959 1056 
Q 959 750 1161 570 
Q 1363 391 1709 391 
Q 2188 391 2477 730 
Q 2766 1069 2766 1631 
L 2766 1759 
L 2194 1759 
z
M 3341 1997 
L 3341 0 
L 2766 0 
L 2766 531 
Q 2569 213 2275 61 
Q 1981 -91 1556 -91 
Q 1019 -91 701 211 
Q 384 513 384 1019 
Q 384 1609 779 1909 
Q 1175 2209 1959 2209 
L 2766 2209 
L 2766 2266 
Q 2766 2663 2505 2880 
Q 2244 3097 1772 3097 
Q 1472 3097 1187 3025 
Q 903 2953 641 2809 
L 641 3341 
Q 956 3463 1253 3523 
Q 1550 3584 1831 3584 
Q 2591 3584 2966 3190 
Q 3341 2797 3341 1997 
z
" transform="scale(0.015625)"/>
       <path id="DejaVuSans-76" d="M 191 3500 
L 800 3500 
L 1894 563 
L 2988 3500 
L 3597 3500 
L 2284 0 
L 1503 0 
L 191 3500 
z
" transform="scale(0.015625)"/>
       <path id="DejaVuSans-65" d="M 3597 1894 
L 3597 1613 
L 953 1613 
Q 991 1019 1311 708 
Q 1631 397 2203 397 
Q 2534 397 2845 478 
Q 3156 559 3463 722 
L 3463 178 
Q 3153 47 2828 -22 
Q 2503 -91 2169 -91 
Q 1331 -91 842 396 
Q 353 884 353 1716 
Q 353 2575 817 3079 
Q 1281 3584 2069 3584 
Q 2775 3584 3186 3129 
Q 3597 2675 3597 1894 
z
M 3022 2063 
Q 3016 2534 2758 2815 
Q 2500 3097 2075 3097 
Q 1594 3097 1305 2825 
Q 1016 2553 972 2059 
L 3022 2063 
z
" transform="scale(0.015625)"/>
       <path id="DejaVuSans-6c" d="M 603 4863 
L 1178 4863 
L 1178 0 
L 603 0 
L 603 4863 
z
" transform="scale(0.015625)"/>
       <path id="DejaVuSans-6e" d="M 3513 2113 
L 3513 0 
L 2938 0 
L 2938 2094 
Q 2938 2591 2744 2837 
Q 2550 3084 2163 3084 
Q 1697 3084 1428 2787 
Q 1159 2491 1159 1978 
L 1159 0 
L 581 0 
L 581 3500 
L 1159 3500 
L 1159 2956 
Q 1366 3272 1645 3428 
Q 1925 3584 2291 3584 
Q 2894 3584 3203 3211 
Q 3513 2838 3513 2113 
z
" transform="scale(0.015625)"/>
       <path id="DejaVuSans-67" d="M 2906 1791 
Q 2906 2416 2648 2759 
Q 2391 3103 1925 3103 
Q 1463 3103 1205 2759 
Q 947 2416 947 1791 
Q 947 1169 1205 825 
Q 1463 481 1925 481 
Q 2391 481 2648 825 
Q 2906 1169 2906 1791 
z
M 3481 434 
Q 3481 -459 3084 -895 
Q 2688 -1331 1869 -1331 
Q 1566 -1331 1297 -1286 
Q 1028 -1241 775 -1147 
L 775 -588 
Q 1028 -725 1275 -790 
Q 1522 -856 1778 -856 
Q 2344 -856 2625 -561 
Q 2906 -266 2906 331 
L 2906 616 
Q 2728 306 2450 153 
Q 2172 0 1784 0 
Q 1141 0 747 490 
Q 353 981 353 1791 
Q 353 2603 747 3093 
Q 1141 3584 1784 3584 
Q 2172 3584 2450 3431 
Q 2728 3278 2906 2969 
L 2906 3500 
L 3481 3500 
L 3481 434 
z
" transform="scale(0.015625)"/>
       <path id="DejaVuSans-74" d="M 1172 4494 
L 1172 3500 
L 2356 3500 
L 2356 3053 
L 1172 3053 
L 1172 1153 
Q 1172 725 1289 603 
Q 1406 481 1766 481 
L 2356 481 
L 2356 0 
L 1766 0 
Q 1100 0 847 248 
Q 594 497 594 1153 
L 594 3053 
L 172 3053 
L 172 3500 
L 594 3500 
L 594 4494 
L 1172 4494 
z
" transform="scale(0.015625)"/>
       <path id="DejaVuSans-68" d="M 3513 2113 
L 3513 0 
L 2938 0 
L 2938 2094 
Q 2938 2591 2744 2837 
Q 2550 3084 2163 3084 
Q 1697 3084 1428 2787 
Q 1159 2491 1159 1978 
L 1159 0 
L 581 0 
L 581 4863 
L 1159 4863 
L 1159 2956 
Q 1366 3272 1645 3428 
Q 1925 3584 2291 3584 
Q 2894 3584 3203 3211 
Q 3513 2838 3513 2113 
z
" transform="scale(0.015625)"/>
      </defs>
      <use xlink:href="#DejaVuSans-57"/>
      <use xlink:href="#DejaVuSans-61" transform="translate(92.501953 0)"/>
      <use xlink:href="#DejaVuSans-76" transform="translate(153.78125 0)"/>
      <use xlink:href="#DejaVuSans-65" transform="translate(212.960938 0)"/>
      <use xlink:href="#DejaVuSans-6c" transform="translate(274.484375 0)"/>
      <use xlink:href="#DejaVuSans-65" transform="translate(302.267578 0)"/>
      <use xlink:href="#DejaVuSans-6e" transform="translate(363.791016 0)"/>
      <use xlink:href="#DejaVuSans-67" transform="translate(427.169922 0)"/>
      <use xlink:href="#DejaVuSans-74" transform="translate(490.646484 0)"/>
      <use xlink:href="#DejaVuSans-68" transform="translate(529.855469 0)"/>
     </g>
    </g>
   </g>
   <g id="matplotlib.axis_2">
    <g id="ytick_1">
     <g id="line2d_11">
      <path d="M 117 246.24013 
L 330.352941 246.24013 
" clip-path="url(#p88321d9ec2)" style="fill: none; stroke-dasharray: 1.85,0.8; stroke-dashoffset: 0; stroke: #b2b2b2; stroke-width: 0.5"/>
     </g>
     <g id="line2d_12">
      <defs>
       <path id="m5ec08e981a" d="M 0 0 
L 3.5 0 
" style="stroke: #000000; stroke-width: 0.8"/>
      </defs>
      <g>
       <use xlink:href="#m5ec08e981a" x="117" y="246.24013" style="stroke: #000000; stroke-width: 0.8"/>
      </g>
     </g>
     <g id="text_7">
      <!-- 0.0000 -->
      <g transform="translate(71.51125 250.799193) scale(0.12 -0.12)">
       <defs>
        <path id="DejaVuSans-2e" d="M 684 794 
L 1344 794 
L 1344 0 
L 684 0 
L 684 794 
z
" transform="scale(0.015625)"/>
       </defs>
       <use xlink:href="#DejaVuSans-30"/>
       <use xlink:href="#DejaVuSans-2e" transform="translate(63.623047 0)"/>
       <use xlink:href="#DejaVuSans-30" transform="translate(95.410156 0)"/>
       <use xlink:href="#DejaVuSans-30" transform="translate(159.033203 0)"/>
       <use xlink:href="#DejaVuSans-30" transform="translate(222.65625 0)"/>
       <use xlink:href="#DejaVuSans-30" transform="translate(286.279297 0)"/>
      </g>
     </g>
    </g>
    <g id="ytick_2">
     <g id="line2d_13">
      <path d="M 117 216.413197 
L 330.352941 216.413197 
" clip-path="url(#p88321d9ec2)" style="fill: none; stroke-dasharray: 1.85,0.8; stroke-dashoffset: 0; stroke: #b2b2b2; stroke-width: 0.5"/>
     </g>
     <g id="line2d_14">
      <g>
       <use xlink:href="#m5ec08e981a" x="117" y="216.413197" style="stroke: #000000; stroke-width: 0.8"/>
      </g>
     </g>
     <g id="text_8">
      <!-- 0.0025 -->
      <g transform="translate(71.51125 220.972259) scale(0.12 -0.12)">
       <defs>
        <path id="DejaVuSans-32" d="M 1228 531 
L 3431 531 
L 3431 0 
L 469 0 
L 469 531 
Q 828 903 1448 1529 
Q 2069 2156 2228 2338 
Q 2531 2678 2651 2914 
Q 2772 3150 2772 3378 
Q 2772 3750 2511 3984 
Q 2250 4219 1831 4219 
Q 1534 4219 1204 4116 
Q 875 4013 500 3803 
L 500 4441 
Q 881 4594 1212 4672 
Q 1544 4750 1819 4750 
Q 2544 4750 2975 4387 
Q 3406 4025 3406 3419 
Q 3406 3131 3298 2873 
Q 3191 2616 2906 2266 
Q 2828 2175 2409 1742 
Q 1991 1309 1228 531 
z
" transform="scale(0.015625)"/>
       </defs>
       <use xlink:href="#DejaVuSans-30"/>
       <use xlink:href="#DejaVuSans-2e" transform="translate(63.623047 0)"/>
       <use xlink:href="#DejaVuSans-30" transform="translate(95.410156 0)"/>
       <use xlink:href="#DejaVuSans-30" transform="translate(159.033203 0)"/>
       <use xlink:href="#DejaVuSans-32" transform="translate(222.65625 0)"/>
       <use xlink:href="#DejaVuSans-35" transform="translate(286.279297 0)"/>
      </g>
     </g>
    </g>
    <g id="ytick_3">
     <g id="line2d_15">
      <path d="M 117 186.586263 
L 330.352941 186.586263 
" clip-path="url(#p88321d9ec2)" style="fill: none; stroke-dasharray: 1.85,0.8; stroke-dashoffset: 0; stroke: #b2b2b2; stroke-width: 0.5"/>
     </g>
     <g id="line2d_16">
      <g>
       <use xlink:href="#m5ec08e981a" x="117" y="186.586263" style="stroke: #000000; stroke-width: 0.8"/>
      </g>
     </g>
     <g id="text_9">
      <!-- 0.0050 -->
      <g transform="translate(71.51125 191.145325) scale(0.12 -0.12)">
       <use xlink:href="#DejaVuSans-30"/>
       <use xlink:href="#DejaVuSans-2e" transform="translate(63.623047 0)"/>
       <use xlink:href="#DejaVuSans-30" transform="translate(95.410156 0)"/>
       <use xlink:href="#DejaVuSans-30" transform="translate(159.033203 0)"/>
       <use xlink:href="#DejaVuSans-35" transform="translate(222.65625 0)"/>
       <use xlink:href="#DejaVuSans-30" transform="translate(286.279297 0)"/>
      </g>
     </g>
    </g>
    <g id="ytick_4">
     <g id="line2d_17">
      <path d="M 117 156.759329 
L 330.352941 156.759329 
" clip-path="url(#p88321d9ec2)" style="fill: none; stroke-dasharray: 1.85,0.8; stroke-dashoffset: 0; stroke: #b2b2b2; stroke-width: 0.5"/>
     </g>
     <g id="line2d_18">
      <g>
       <use xlink:href="#m5ec08e981a" x="117" y="156.759329" style="stroke: #000000; stroke-width: 0.8"/>
      </g>
     </g>
     <g id="text_10">
      <!-- 0.0075 -->
      <g transform="translate(71.51125 161.318391) scale(0.12 -0.12)">
       <use xlink:href="#DejaVuSans-30"/>
       <use xlink:href="#DejaVuSans-2e" transform="translate(63.623047 0)"/>
       <use xlink:href="#DejaVuSans-30" transform="translate(95.410156 0)"/>
       <use xlink:href="#DejaVuSans-30" transform="translate(159.033203 0)"/>
       <use xlink:href="#DejaVuSans-37" transform="translate(222.65625 0)"/>
       <use xlink:href="#DejaVuSans-35" transform="translate(286.279297 0)"/>
      </g>
     </g>
    </g>
    <g id="ytick_5">
     <g id="line2d_19">
      <path d="M 117 126.932395 
L 330.352941 126.932395 
" clip-path="url(#p88321d9ec2)" style="fill: none; stroke-dasharray: 1.85,0.8; stroke-dashoffset: 0; stroke: #b2b2b2; stroke-width: 0.5"/>
     </g>
     <g id="line2d_20">
      <g>
       <use xlink:href="#m5ec08e981a" x="117" y="126.932395" style="stroke: #000000; stroke-width: 0.8"/>
      </g>
     </g>
     <g id="text_11">
      <!-- 0.0100 -->
      <g transform="translate(71.51125 131.491458) scale(0.12 -0.12)">
       <defs>
        <path id="DejaVuSans-31" d="M 794 531 
L 1825 531 
L 1825 4091 
L 703 3866 
L 703 4441 
L 1819 4666 
L 2450 4666 
L 2450 531 
L 3481 531 
L 3481 0 
L 794 0 
L 794 531 
z
" transform="scale(0.015625)"/>
       </defs>
       <use xlink:href="#DejaVuSans-30"/>
       <use xlink:href="#DejaVuSans-2e" transform="translate(63.623047 0)"/>
       <use xlink:href="#DejaVuSans-30" transform="translate(95.410156 0)"/>
       <use xlink:href="#DejaVuSans-31" transform="translate(159.033203 0)"/>
       <use xlink:href="#DejaVuSans-30" transform="translate(222.65625 0)"/>
       <use xlink:href="#DejaVuSans-30" transform="translate(286.279297 0)"/>
      </g>
     </g>
    </g>
    <g id="ytick_6">
     <g id="line2d_21">
      <path d="M 117 97.105461 
L 330.352941 97.105461 
" clip-path="url(#p88321d9ec2)" style="fill: none; stroke-dasharray: 1.85,0.8; stroke-dashoffset: 0; stroke: #b2b2b2; stroke-width: 0.5"/>
     </g>
     <g id="line2d_22">
      <g>
       <use xlink:href="#m5ec08e981a" x="117" y="97.105461" style="stroke: #000000; stroke-width: 0.8"/>
      </g>
     </g>
     <g id="text_12">
      <!-- 0.0125 -->
      <g transform="translate(71.51125 101.664524) scale(0.12 -0.12)">
       <use xlink:href="#DejaVuSans-30"/>
       <use xlink:href="#DejaVuSans-2e" transform="translate(63.623047 0)"/>
       <use xlink:href="#DejaVuSans-30" transform="translate(95.410156 0)"/>
       <use xlink:href="#DejaVuSans-31" transform="translate(159.033203 0)"/>
       <use xlink:href="#DejaVuSans-32" transform="translate(222.65625 0)"/>
       <use xlink:href="#DejaVuSans-35" transform="translate(286.279297 0)"/>
      </g>
     </g>
    </g>
    <g id="ytick_7">
     <g id="line2d_23">
      <path d="M 117 67.278527 
L 330.352941 67.278527 
" clip-path="url(#p88321d9ec2)" style="fill: none; stroke-dasharray: 1.85,0.8; stroke-dashoffset: 0; stroke: #b2b2b2; stroke-width: 0.5"/>
     </g>
     <g id="line2d_24">
      <g>
       <use xlink:href="#m5ec08e981a" x="117" y="67.278527" style="stroke: #000000; stroke-width: 0.8"/>
      </g>
     </g>
     <g id="text_13">
      <!-- 0.0150 -->
      <g transform="translate(71.51125 71.83759) scale(0.12 -0.12)">
       <use xlink:href="#DejaVuSans-30"/>
       <use xlink:href="#DejaVuSans-2e" transform="translate(63.623047 0)"/>
       <use xlink:href="#DejaVuSans-30" transform="translate(95.410156 0)"/>
       <use xlink:href="#DejaVuSans-31" transform="translate(159.033203 0)"/>
       <use xlink:href="#DejaVuSans-35" transform="translate(222.65625 0)"/>
       <use xlink:href="#DejaVuSans-30" transform="translate(286.279297 0)"/>
      </g>
     </g>
    </g>
    <g id="ytick_8">
     <g id="line2d_25">
      <path d="M 117 37.451594 
L 330.352941 37.451594 
" clip-path="url(#p88321d9ec2)" style="fill: none; stroke-dasharray: 1.85,0.8; stroke-dashoffset: 0; stroke: #b2b2b2; stroke-width: 0.5"/>
     </g>
     <g id="line2d_26">
      <g>
       <use xlink:href="#m5ec08e981a" x="117" y="37.451594" style="stroke: #000000; stroke-width: 0.8"/>
      </g>
     </g>
     <g id="text_14">
      <!-- 0.0175 -->
      <g transform="translate(71.51125 42.010656) scale(0.12 -0.12)">
       <use xlink:href="#DejaVuSans-30"/>
       <use xlink:href="#DejaVuSans-2e" transform="translate(63.623047 0)"/>
       <use xlink:href="#DejaVuSans-30" transform="translate(95.410156 0)"/>
       <use xlink:href="#DejaVuSans-31" transform="translate(159.033203 0)"/>
       <use xlink:href="#DejaVuSans-37" transform="translate(222.65625 0)"/>
       <use xlink:href="#DejaVuSans-35" transform="translate(286.279297 0)"/>
      </g>
     </g>
    </g>
    <g id="text_15">
     <!-- Energy -->
     <g transform="translate(64.5165 170.649) rotate(-90) scale(0.144 -0.144)">
      <defs>
       <path id="DejaVuSans-45" d="M 628 4666 
L 3578 4666 
L 3578 4134 
L 1259 4134 
L 1259 2753 
L 3481 2753 
L 3481 2222 
L 1259 2222 
L 1259 531 
L 3634 531 
L 3634 0 
L 628 0 
L 628 4666 
z
" transform="scale(0.015625)"/>
       <path id="DejaVuSans-72" d="M 2631 2963 
Q 2534 3019 2420 3045 
Q 2306 3072 2169 3072 
Q 1681 3072 1420 2755 
Q 1159 2438 1159 1844 
L 1159 0 
L 581 0 
L 581 3500 
L 1159 3500 
L 1159 2956 
Q 1341 3275 1631 3429 
Q 1922 3584 2338 3584 
Q 2397 3584 2469 3576 
Q 2541 3569 2628 3553 
L 2631 2963 
z
" transform="scale(0.015625)"/>
       <path id="DejaVuSans-79" d="M 2059 -325 
Q 1816 -950 1584 -1140 
Q 1353 -1331 966 -1331 
L 506 -1331 
L 506 -850 
L 844 -850 
Q 1081 -850 1212 -737 
Q 1344 -625 1503 -206 
L 1606 56 
L 191 3500 
L 800 3500 
L 1894 763 
L 2988 3500 
L 3597 3500 
L 2059 -325 
z
" transform="scale(0.015625)"/>
      </defs>
      <use xlink:href="#DejaVuSans-45"/>
      <use xlink:href="#DejaVuSans-6e" transform="translate(63.183594 0)"/>
      <use xlink:href="#DejaVuSans-65" transform="translate(126.5625 0)"/>
      <use xlink:href="#DejaVuSans-72" transform="translate(188.085938 0)"/>
      <use xlink:href="#DejaVuSans-67" transform="translate(227.449219 0)"/>
      <use xlink:href="#DejaVuSans-79" transform="translate(290.925781 0)"/>
     </g>
    </g>
   </g>
   <g id="line2d_27">
    <path d="M 126.697861 246.222956 
L 127.182754 246.156449 
L 128.15254 246.192801 
L 132.031684 246.133176 
L 135.425936 245.926415 
L 137.365508 245.392728 
L 138.820187 244.612445 
L 139.789973 243.743891 
L 141.244652 241.482124 
L 141.729545 240.427746 
L 142.699332 237.647343 
L 143.669118 233.632211 
L 144.638904 227.873106 
L 145.123797 224.446381 
L 146.093583 215.111444 
L 147.063369 202.638143 
L 148.518048 182.915959 
L 149.002941 178.314229 
L 149.487834 175.339307 
L 149.972727 174.146323 
L 150.45762 175.079819 
L 151.427406 186.21041 
L 153.366979 211.316263 
L 153.851872 215.375414 
L 154.821658 220.811106 
L 155.791444 224.69342 
L 158.215909 232.266365 
L 159.185695 234.600862 
L 159.670588 235.485747 
L 160.155481 235.923769 
L 160.640374 236.205443 
L 161.125267 236.263479 
L 162.095053 235.740171 
L 163.06484 234.771631 
L 164.034626 234.050883 
L 165.004412 233.916279 
L 165.974198 234.686022 
L 167.91377 236.9514 
L 168.883556 237.624963 
L 169.368449 237.672954 
L 170.338235 237.466575 
L 171.792914 236.749204 
L 172.762701 236.5489 
L 173.247594 236.575311 
L 174.21738 237.042776 
L 175.187166 237.903549 
L 176.156952 238.960707 
L 178.096524 240.926386 
L 179.06631 241.602659 
L 179.551203 241.808171 
L 180.036096 242.144382 
L 182.945455 243.036497 
L 184.400134 243.233973 
L 185.854813 243.174988 
L 187.794385 242.546538 
L 188.764171 241.957166 
L 189.733957 241.159967 
L 190.703743 240.222544 
L 192.158422 238.530949 
L 194.097995 236.286414 
L 195.067781 235.43615 
L 196.037567 234.92442 
L 197.007353 234.920516 
L 197.977139 235.390963 
L 198.946925 236.197914 
L 200.401604 237.682792 
L 202.341176 239.585548 
L 203.310963 240.352024 
L 206.220321 241.864957 
L 209.129679 242.809361 
L 210.584358 242.992045 
L 212.039037 242.952552 
L 213.008824 242.678157 
L 214.463503 242.065424 
L 216.403075 239.982897 
L 217.857754 237.409306 
L 218.82754 234.939206 
L 219.797326 231.544174 
L 220.282219 229.635473 
L 221.252005 224.587319 
L 222.706684 214.112212 
L 223.191578 209.633933 
L 224.161364 197.219517 
L 225.13115 182.34874 
L 226.100936 162.801442 
L 227.555615 125.648521 
L 229.010294 80.019806 
L 229.495187 68.349698 
L 229.98008 64.097585 
L 230.464973 68.50859 
L 230.949866 80.109082 
L 231.434759 97.671593 
L 232.889439 161.865264 
L 233.859225 189.67399 
L 234.829011 208.013219 
L 235.798797 220.425888 
L 236.768583 228.573348 
L 237.253476 231.58796 
L 238.223262 235.720499 
L 238.708155 237.093522 
L 239.677941 238.331498 
L 240.647727 238.82887 
L 241.617513 238.642944 
L 243.072193 237.499642 
L 244.526872 235.54056 
L 245.011765 234.579399 
L 246.951337 229.743069 
L 247.43623 228.948171 
L 247.921123 228.554676 
L 248.406016 229.341421 
L 248.890909 230.643074 
L 249.860695 235.056786 
L 250.830481 239.150715 
L 251.800267 241.920672 
L 252.770053 243.375764 
L 254.224733 244.67048 
L 255.194519 245.235221 
L 256.164305 245.600919 
L 258.58877 245.97614 
L 267.316845 246.21236 
L 271.680882 246.212227 
L 279.439171 246.238237 
L 303.683824 246.205657 
L 309.017647 246.215519 
L 310.957219 246.200151 
L 311.927005 246.230038 
L 314.351471 246.171578 
L 315.321257 246.170276 
L 316.775936 246.217586 
L 320.65508 246.161659 
L 320.65508 246.161659 
" clip-path="url(#p88321d9ec2)" style="fill: none; stroke: #348abd; stroke-width: 2; stroke-linecap: square"/>
   </g>
   <g id="line2d_28">
    <path d="M 126.697861 246.2391 
L 136.395722 246.121939 
L 138.820187 245.878177 
L 140.759759 245.338907 
L 142.214439 244.575853 
L 143.669118 243.403952 
L 145.123797 241.358736 
L 146.093583 239.137886 
L 147.548262 234.968874 
L 148.518048 232.211644 
L 149.002941 231.267874 
L 149.487834 230.664751 
L 149.972727 230.460674 
L 150.45762 230.722727 
L 151.427406 233.015439 
L 153.366979 238.075414 
L 154.336765 239.340268 
L 154.821658 239.680712 
L 155.791444 240.022211 
L 157.246123 240.168393 
L 158.700802 239.618355 
L 159.670588 238.728641 
L 160.155481 238.024496 
L 161.125267 236.029237 
L 162.095053 233.41644 
L 164.519519 225.717862 
L 165.974198 222.383418 
L 166.943984 220.111641 
L 167.91377 216.425909 
L 168.883556 210.595169 
L 169.853342 202.384869 
L 171.792914 180.780817 
L 172.277807 175.175289 
L 173.247594 167.854834 
L 173.732487 165.794505 
L 174.21738 165.129726 
L 174.702273 165.424179 
L 175.187166 167.451122 
L 176.156952 174.370908 
L 179.06631 200.772324 
L 180.036096 207.050365 
L 181.490775 213.886187 
L 181.975668 216.122848 
L 182.945455 219.613957 
L 184.400134 225.161876 
L 186.824599 232.481251 
L 187.794385 234.31125 
L 188.764171 235.798725 
L 189.733957 236.441657 
L 190.703743 237.081025 
L 191.188636 237.311357 
L 193.128209 237.548576 
L 194.582888 237.737692 
L 196.52246 238.331852 
L 197.492246 238.76077 
L 198.946925 239.75699 
L 200.886497 241.121961 
L 202.82607 242.361807 
L 203.795856 242.805076 
L 207.190107 243.86167 
L 209.129679 244.319893 
L 212.039037 244.596051 
L 214.463503 244.282483 
L 215.918182 243.693251 
L 216.403075 243.522404 
L 217.857754 242.513739 
L 218.342647 242.111239 
L 219.797326 240.161703 
L 220.767112 238.433251 
L 221.736898 235.916059 
L 222.706684 232.920482 
L 223.191578 231.082915 
L 224.161364 225.96112 
L 225.13115 219.590807 
L 226.100936 211.15012 
L 227.070722 200.857804 
L 228.040508 189.096491 
L 229.010294 176.55091 
L 229.495187 172.135152 
L 229.98008 170.97977 
L 230.464973 173.275513 
L 230.949866 178.241083 
L 233.374332 214.060282 
L 233.859225 217.792448 
L 234.344118 220.653192 
L 234.829011 222.631783 
L 235.313904 223.895016 
L 235.798797 224.504422 
L 236.28369 224.487931 
L 236.768583 223.940075 
L 237.253476 223.174812 
L 238.223262 219.238171 
L 239.193048 212.792247 
L 240.162834 204.17097 
L 241.13262 193.361781 
L 242.587299 171.018488 
L 243.557086 154.523135 
L 244.526872 134.383076 
L 245.496658 106.096002 
L 246.951337 58.090835 
L 247.43623 47.669738 
L 247.921123 44.64 
L 248.406016 52.280125 
L 248.890909 70.571163 
L 250.830481 173.025456 
L 251.315374 189.860212 
L 252.28516 211.085777 
L 253.254947 223.394223 
L 254.224733 231.37751 
L 255.194519 236.549619 
L 255.679412 238.542266 
L 256.649198 241.270658 
L 257.134091 242.210093 
L 258.58877 244.014462 
L 260.043449 244.746322 
L 261.013235 245.103655 
L 261.498128 245.171583 
L 261.983021 245.409058 
L 264.89238 245.909079 
L 269.256417 246.182188 
L 270.226203 246.108813 
L 270.711096 246.20974 
L 272.165775 246.157031 
L 273.135561 246.149041 
L 275.075134 246.16922 
L 283.803209 246.237387 
L 307.078075 246.22699 
L 309.987433 246.218988 
L 314.351471 246.204175 
L 314.836364 246.06202 
L 316.291043 246.228583 
L 320.65508 246.221512 
L 320.65508 246.221512 
" clip-path="url(#p88321d9ec2)" style="fill: none; stroke: #a60628; stroke-width: 2; stroke-linecap: square"/>
   </g>
   <g id="patch_3">
    <path d="M 117 256.32 
L 117 34.56 
" style="fill: none; stroke: #bcbcbc; stroke-width: 0.8; stroke-linejoin: miter; stroke-linecap: square"/>
   </g>
   <g id="patch_4">
    <path d="M 330.352941 256.32 
L 330.352941 34.56 
" style="fill: none; stroke: #bcbcbc; stroke-width: 0.8; stroke-linejoin: miter; stroke-linecap: square"/>
   </g>
   <g id="patch_5">
    <path d="M 117 256.32 
L 330.352941 256.32 
" style="fill: none; stroke: #bcbcbc; stroke-width: 0.8; stroke-linejoin: miter; stroke-linecap: square"/>
   </g>
   <g id="patch_6">
    <path d="M 117 34.56 
L 330.352941 34.56 
" style="fill: none; stroke: #bcbcbc; stroke-width: 0.8; stroke-linejoin: miter; stroke-linecap: square"/>
   </g>
   <g id="legend_1">
    <g id="patch_7">
     <path d="M 125.4 79.3875 
L 235.385625 79.3875 
Q 237.785625 79.3875 237.785625 76.9875 
L 237.785625 42.96 
Q 237.785625 40.56 235.385625 40.56 
L 125.4 40.56 
Q 123 40.56 123 42.96 
L 123 76.9875 
Q 123 79.3875 125.4 79.3875 
z
" style="fill: #eeeeee; opacity: 0.8; stroke: #cccccc; stroke-width: 0.5; stroke-linejoin: miter"/>
    </g>
    <g id="line2d_29">
     <path d="M 127.8 50.278125 
L 139.8 50.278125 
L 151.8 50.278125 
" style="fill: none; stroke: #348abd; stroke-width: 2; stroke-linecap: square"/>
    </g>
    <g id="text_16">
     <!-- Background -->
     <g transform="translate(161.4 54.478125) scale(0.12 -0.12)">
      <defs>
       <path id="DejaVuSans-42" d="M 1259 2228 
L 1259 519 
L 2272 519 
Q 2781 519 3026 730 
Q 3272 941 3272 1375 
Q 3272 1813 3026 2020 
Q 2781 2228 2272 2228 
L 1259 2228 
z
M 1259 4147 
L 1259 2741 
L 2194 2741 
Q 2656 2741 2882 2914 
Q 3109 3088 3109 3444 
Q 3109 3797 2882 3972 
Q 2656 4147 2194 4147 
L 1259 4147 
z
M 628 4666 
L 2241 4666 
Q 2963 4666 3353 4366 
Q 3744 4066 3744 3513 
Q 3744 3084 3544 2831 
Q 3344 2578 2956 2516 
Q 3422 2416 3680 2098 
Q 3938 1781 3938 1306 
Q 3938 681 3513 340 
Q 3088 0 2303 0 
L 628 0 
L 628 4666 
z
" transform="scale(0.015625)"/>
       <path id="DejaVuSans-63" d="M 3122 3366 
L 3122 2828 
Q 2878 2963 2633 3030 
Q 2388 3097 2138 3097 
Q 1578 3097 1268 2742 
Q 959 2388 959 1747 
Q 959 1106 1268 751 
Q 1578 397 2138 397 
Q 2388 397 2633 464 
Q 2878 531 3122 666 
L 3122 134 
Q 2881 22 2623 -34 
Q 2366 -91 2075 -91 
Q 1284 -91 818 406 
Q 353 903 353 1747 
Q 353 2603 823 3093 
Q 1294 3584 2113 3584 
Q 2378 3584 2631 3529 
Q 2884 3475 3122 3366 
z
" transform="scale(0.015625)"/>
       <path id="DejaVuSans-6b" d="M 581 4863 
L 1159 4863 
L 1159 1991 
L 2875 3500 
L 3609 3500 
L 1753 1863 
L 3688 0 
L 2938 0 
L 1159 1709 
L 1159 0 
L 581 0 
L 581 4863 
z
" transform="scale(0.015625)"/>
       <path id="DejaVuSans-6f" d="M 1959 3097 
Q 1497 3097 1228 2736 
Q 959 2375 959 1747 
Q 959 1119 1226 758 
Q 1494 397 1959 397 
Q 2419 397 2687 759 
Q 2956 1122 2956 1747 
Q 2956 2369 2687 2733 
Q 2419 3097 1959 3097 
z
M 1959 3584 
Q 2709 3584 3137 3096 
Q 3566 2609 3566 1747 
Q 3566 888 3137 398 
Q 2709 -91 1959 -91 
Q 1206 -91 779 398 
Q 353 888 353 1747 
Q 353 2609 779 3096 
Q 1206 3584 1959 3584 
z
" transform="scale(0.015625)"/>
       <path id="DejaVuSans-75" d="M 544 1381 
L 544 3500 
L 1119 3500 
L 1119 1403 
Q 1119 906 1312 657 
Q 1506 409 1894 409 
Q 2359 409 2629 706 
Q 2900 1003 2900 1516 
L 2900 3500 
L 3475 3500 
L 3475 0 
L 2900 0 
L 2900 538 
Q 2691 219 2414 64 
Q 2138 -91 1772 -91 
Q 1169 -91 856 284 
Q 544 659 544 1381 
z
M 1991 3584 
L 1991 3584 
z
" transform="scale(0.015625)"/>
       <path id="DejaVuSans-64" d="M 2906 2969 
L 2906 4863 
L 3481 4863 
L 3481 0 
L 2906 0 
L 2906 525 
Q 2725 213 2448 61 
Q 2172 -91 1784 -91 
Q 1150 -91 751 415 
Q 353 922 353 1747 
Q 353 2572 751 3078 
Q 1150 3584 1784 3584 
Q 2172 3584 2448 3432 
Q 2725 3281 2906 2969 
z
M 947 1747 
Q 947 1113 1208 752 
Q 1469 391 1925 391 
Q 2381 391 2643 752 
Q 2906 1113 2906 1747 
Q 2906 2381 2643 2742 
Q 2381 3103 1925 3103 
Q 1469 3103 1208 2742 
Q 947 2381 947 1747 
z
" transform="scale(0.015625)"/>
      </defs>
      <use xlink:href="#DejaVuSans-42"/>
      <use xlink:href="#DejaVuSans-61" transform="translate(68.603516 0)"/>
      <use xlink:href="#DejaVuSans-63" transform="translate(129.882812 0)"/>
      <use xlink:href="#DejaVuSans-6b" transform="translate(184.863281 0)"/>
      <use xlink:href="#DejaVuSans-67" transform="translate(242.773438 0)"/>
      <use xlink:href="#DejaVuSans-72" transform="translate(306.25 0)"/>
      <use xlink:href="#DejaVuSans-6f" transform="translate(345.113281 0)"/>
      <use xlink:href="#DejaVuSans-75" transform="translate(406.294922 0)"/>
      <use xlink:href="#DejaVuSans-6e" transform="translate(469.673828 0)"/>
      <use xlink:href="#DejaVuSans-64" transform="translate(533.052734 0)"/>
     </g>
    </g>
    <g id="line2d_30">
     <path d="M 127.8 67.891875 
L 139.8 67.891875 
L 151.8 67.891875 
" style="fill: none; stroke: #a60628; stroke-width: 2; stroke-linecap: square"/>
    </g>
    <g id="text_17">
     <!-- Modulation -->
     <g transform="translate(161.4 72.091875) scale(0.12 -0.12)">
      <defs>
       <path id="DejaVuSans-4d" d="M 628 4666 
L 1569 4666 
L 2759 1491 
L 3956 4666 
L 4897 4666 
L 4897 0 
L 4281 0 
L 4281 4097 
L 3078 897 
L 2444 897 
L 1241 4097 
L 1241 0 
L 628 0 
L 628 4666 
z
" transform="scale(0.015625)"/>
       <path id="DejaVuSans-69" d="M 603 3500 
L 1178 3500 
L 1178 0 
L 603 0 
L 603 3500 
z
M 603 4863 
L 1178 4863 
L 1178 4134 
L 603 4134 
L 603 4863 
z
" transform="scale(0.015625)"/>
      </defs>
      <use xlink:href="#DejaVuSans-4d"/>
      <use xlink:href="#DejaVuSans-6f" transform="translate(86.279297 0)"/>
      <use xlink:href="#DejaVuSans-64" transform="translate(147.460938 0)"/>
      <use xlink:href="#DejaVuSans-75" transform="translate(210.9375 0)"/>
      <use xlink:href="#DejaVuSans-6c" transform="translate(274.316406 0)"/>
      <use xlink:href="#DejaVuSans-61" transform="translate(302.099609 0)"/>
      <use xlink:href="#DejaVuSans-74" transform="translate(363.378906 0)"/>
      <use xlink:href="#DejaVuSans-69" transform="translate(402.587891 0)"/>
      <use xlink:href="#DejaVuSans-6f" transform="translate(430.371094 0)"/>
      <use xlink:href="#DejaVuSans-6e" transform="translate(491.552734 0)"/>
     </g>
    </g>
   </g>
  </g>
  <g id="axes_2">
   <g id="patch_8">
    <path d="M 373.023529 256.32 
L 586.376471 256.32 
L 586.376471 34.56 
L 373.023529 34.56 
z
" style="fill: #eeeeee"/>
   </g>
   <g id="PathCollection_1">
    <path d="M 487.45265 172.17911 
C 488.778666 172.17911 490.05055 171.652279 490.988184 170.714644 
C 491.925819 169.777009 492.45265 168.505126 492.45265 167.17911 
C 492.45265 165.853095 491.925819 164.581211 490.988184 163.643576 
C 490.05055 162.705942 488.778666 162.17911 487.45265 162.17911 
C 486.126635 162.17911 484.854751 162.705942 483.917116 163.643576 
C 482.979482 164.581211 482.45265 165.853095 482.45265 167.17911 
C 482.45265 168.505126 482.979482 169.777009 483.917116 170.714644 
C 484.854751 171.652279 486.126635 172.17911 487.45265 172.17911 
L 487.45265 172.17911 
z
" clip-path="url(#pf28cdd87a1)" style="fill: none; stroke: #000000; stroke-width: 0.5"/>
   </g>
   <g id="PathCollection_2">
    <defs>
     <path id="m190b2fe942" d="M -5 5 
L 5 -5 
M -5 -5 
L 5 5 
" style="stroke: #000000; stroke-width: 2"/>
    </defs>
    <g clip-path="url(#pf28cdd87a1)">
     <use xlink:href="#m190b2fe942" x="487.347316" y="167.59752" style="stroke: #000000; stroke-width: 2"/>
    </g>
   </g>
   <g id="matplotlib.axis_3">
    <g id="xtick_6">
     <g id="line2d_31">
      <path d="M 394.358824 256.32 
L 394.358824 34.56 
" clip-path="url(#pf28cdd87a1)" style="fill: none; stroke-dasharray: 1.85,0.8; stroke-dashoffset: 0; stroke: #b2b2b2; stroke-width: 0.5"/>
     </g>
     <g id="line2d_32">
      <g>
       <use xlink:href="#m848f95face" x="394.358824" y="256.32" style="stroke: #000000; stroke-width: 0.8"/>
      </g>
     </g>
     <g id="text_18">
      <!-- 0.0 -->
      <g transform="translate(384.816949 268.938125) scale(0.12 -0.12)">
       <use xlink:href="#DejaVuSans-30"/>
       <use xlink:href="#DejaVuSans-2e" transform="translate(63.623047 0)"/>
       <use xlink:href="#DejaVuSans-30" transform="translate(95.410156 0)"/>
      </g>
     </g>
    </g>
    <g id="xtick_7">
     <g id="line2d_33">
      <path d="M 437.029412 256.32 
L 437.029412 34.56 
" clip-path="url(#pf28cdd87a1)" style="fill: none; stroke-dasharray: 1.85,0.8; stroke-dashoffset: 0; stroke: #b2b2b2; stroke-width: 0.5"/>
     </g>
     <g id="line2d_34">
      <g>
       <use xlink:href="#m848f95face" x="437.029412" y="256.32" style="stroke: #000000; stroke-width: 0.8"/>
      </g>
     </g>
     <g id="text_19">
      <!-- 0.2 -->
      <g transform="translate(427.487537 268.938125) scale(0.12 -0.12)">
       <use xlink:href="#DejaVuSans-30"/>
       <use xlink:href="#DejaVuSans-2e" transform="translate(63.623047 0)"/>
       <use xlink:href="#DejaVuSans-32" transform="translate(95.410156 0)"/>
      </g>
     </g>
    </g>
    <g id="xtick_8">
     <g id="line2d_35">
      <path d="M 479.7 256.32 
L 479.7 34.56 
" clip-path="url(#pf28cdd87a1)" style="fill: none; stroke-dasharray: 1.85,0.8; stroke-dashoffset: 0; stroke: #b2b2b2; stroke-width: 0.5"/>
     </g>
     <g id="line2d_36">
      <g>
       <use xlink:href="#m848f95face" x="479.7" y="256.32" style="stroke: #000000; stroke-width: 0.8"/>
      </g>
     </g>
     <g id="text_20">
      <!-- 0.4 -->
      <g transform="translate(470.158125 268.938125) scale(0.12 -0.12)">
       <use xlink:href="#DejaVuSans-30"/>
       <use xlink:href="#DejaVuSans-2e" transform="translate(63.623047 0)"/>
       <use xlink:href="#DejaVuSans-34" transform="translate(95.410156 0)"/>
      </g>
     </g>
    </g>
    <g id="xtick_9">
     <g id="line2d_37">
      <path d="M 522.370588 256.32 
L 522.370588 34.56 
" clip-path="url(#pf28cdd87a1)" style="fill: none; stroke-dasharray: 1.85,0.8; stroke-dashoffset: 0; stroke: #b2b2b2; stroke-width: 0.5"/>
     </g>
     <g id="line2d_38">
      <g>
       <use xlink:href="#m848f95face" x="522.370588" y="256.32" style="stroke: #000000; stroke-width: 0.8"/>
      </g>
     </g>
     <g id="text_21">
      <!-- 0.6 -->
      <g transform="translate(512.828713 268.938125) scale(0.12 -0.12)">
       <use xlink:href="#DejaVuSans-30"/>
       <use xlink:href="#DejaVuSans-2e" transform="translate(63.623047 0)"/>
       <use xlink:href="#DejaVuSans-36" transform="translate(95.410156 0)"/>
      </g>
     </g>
    </g>
    <g id="xtick_10">
     <g id="line2d_39">
      <path d="M 565.041176 256.32 
L 565.041176 34.56 
" clip-path="url(#pf28cdd87a1)" style="fill: none; stroke-dasharray: 1.85,0.8; stroke-dashoffset: 0; stroke: #b2b2b2; stroke-width: 0.5"/>
     </g>
     <g id="line2d_40">
      <g>
       <use xlink:href="#m848f95face" x="565.041176" y="256.32" style="stroke: #000000; stroke-width: 0.8"/>
      </g>
     </g>
     <g id="text_22">
      <!-- 0.8 -->
      <g transform="translate(555.499301 268.938125) scale(0.12 -0.12)">
       <use xlink:href="#DejaVuSans-30"/>
       <use xlink:href="#DejaVuSans-2e" transform="translate(63.623047 0)"/>
       <use xlink:href="#DejaVuSans-38" transform="translate(95.410156 0)"/>
      </g>
     </g>
    </g>
   </g>
   <g id="matplotlib.axis_4">
    <g id="ytick_9">
     <g id="line2d_41">
      <path d="M 373.023529 234.144 
L 586.376471 234.144 
" clip-path="url(#pf28cdd87a1)" style="fill: none; stroke-dasharray: 1.85,0.8; stroke-dashoffset: 0; stroke: #b2b2b2; stroke-width: 0.5"/>
     </g>
     <g id="line2d_42">
      <g>
       <use xlink:href="#m5ec08e981a" x="373.023529" y="234.144" style="stroke: #000000; stroke-width: 0.8"/>
      </g>
     </g>
     <g id="text_23">
      <!-- 0.0 -->
      <g transform="translate(350.439779 238.703062) scale(0.12 -0.12)">
       <use xlink:href="#DejaVuSans-30"/>
       <use xlink:href="#DejaVuSans-2e" transform="translate(63.623047 0)"/>
       <use xlink:href="#DejaVuSans-30" transform="translate(95.410156 0)"/>
      </g>
     </g>
    </g>
    <g id="ytick_10">
     <g id="line2d_43">
      <path d="M 373.023529 189.792 
L 586.376471 189.792 
" clip-path="url(#pf28cdd87a1)" style="fill: none; stroke-dasharray: 1.85,0.8; stroke-dashoffset: 0; stroke: #b2b2b2; stroke-width: 0.5"/>
     </g>
     <g id="line2d_44">
      <g>
       <use xlink:href="#m5ec08e981a" x="373.023529" y="189.792" style="stroke: #000000; stroke-width: 0.8"/>
      </g>
     </g>
     <g id="text_24">
      <!-- 0.2 -->
      <g transform="translate(350.439779 194.351063) scale(0.12 -0.12)">
       <use xlink:href="#DejaVuSans-30"/>
       <use xlink:href="#DejaVuSans-2e" transform="translate(63.623047 0)"/>
       <use xlink:href="#DejaVuSans-32" transform="translate(95.410156 0)"/>
      </g>
     </g>
    </g>
    <g id="ytick_11">
     <g id="line2d_45">
      <path d="M 373.023529 145.44 
L 586.376471 145.44 
" clip-path="url(#pf28cdd87a1)" style="fill: none; stroke-dasharray: 1.85,0.8; stroke-dashoffset: 0; stroke: #b2b2b2; stroke-width: 0.5"/>
     </g>
     <g id="line2d_46">
      <g>
       <use xlink:href="#m5ec08e981a" x="373.023529" y="145.44" style="stroke: #000000; stroke-width: 0.8"/>
      </g>
     </g>
     <g id="text_25">
      <!-- 0.4 -->
      <g transform="translate(350.439779 149.999063) scale(0.12 -0.12)">
       <use xlink:href="#DejaVuSans-30"/>
       <use xlink:href="#DejaVuSans-2e" transform="translate(63.623047 0)"/>
       <use xlink:href="#DejaVuSans-34" transform="translate(95.410156 0)"/>
      </g>
     </g>
    </g>
    <g id="ytick_12">
     <g id="line2d_47">
      <path d="M 373.023529 101.088 
L 586.376471 101.088 
" clip-path="url(#pf28cdd87a1)" style="fill: none; stroke-dasharray: 1.85,0.8; stroke-dashoffset: 0; stroke: #b2b2b2; stroke-width: 0.5"/>
     </g>
     <g id="line2d_48">
      <g>
       <use xlink:href="#m5ec08e981a" x="373.023529" y="101.088" style="stroke: #000000; stroke-width: 0.8"/>
      </g>
     </g>
     <g id="text_26">
      <!-- 0.6 -->
      <g transform="translate(350.439779 105.647063) scale(0.12 -0.12)">
       <use xlink:href="#DejaVuSans-30"/>
       <use xlink:href="#DejaVuSans-2e" transform="translate(63.623047 0)"/>
       <use xlink:href="#DejaVuSans-36" transform="translate(95.410156 0)"/>
      </g>
     </g>
    </g>
    <g id="ytick_13">
     <g id="line2d_49">
      <path d="M 373.023529 56.736 
L 586.376471 56.736 
" clip-path="url(#pf28cdd87a1)" style="fill: none; stroke-dasharray: 1.85,0.8; stroke-dashoffset: 0; stroke: #b2b2b2; stroke-width: 0.5"/>
     </g>
     <g id="line2d_50">
      <g>
       <use xlink:href="#m5ec08e981a" x="373.023529" y="56.736" style="stroke: #000000; stroke-width: 0.8"/>
      </g>
     </g>
     <g id="text_27">
      <!-- 0.8 -->
      <g transform="translate(350.439779 61.295063) scale(0.12 -0.12)">
       <use xlink:href="#DejaVuSans-30"/>
       <use xlink:href="#DejaVuSans-2e" transform="translate(63.623047 0)"/>
       <use xlink:href="#DejaVuSans-38" transform="translate(95.410156 0)"/>
      </g>
     </g>
    </g>
   </g>
   <g id="line2d_51">
    <path d="M 432.425255 228.679834 
L 432.301511 228.580042 
L 432.019885 228.750797 
L 431.247547 229.37616 
L 430.677895 229.509216 
L 430.159447 229.389466 
L 429.487385 229.027997 
L 428.386484 228.058906 
L 427.550141 227.118643 
L 426.506845 225.686074 
L 425.40381 223.683581 
L 422.226985 217.416643 
L 419.660349 211.391424 
L 417.639896 206.195587 
L 415.233275 199.409731 
L 412.380746 190.659082 
L 409.142049 179.861587 
L 406.867706 171.674208 
L 404.559228 162.69071 
L 402.282752 152.882266 
L 400.142822 142.364189 
L 398.254648 131.418115 
L 396.727041 120.378902 
L 396.138187 114.925824 
L 395.688012 109.574755 
L 395.395719 104.370048 
L 395.271974 99.342749 
L 395.303977 94.495075 
L 395.468259 89.807069 
L 396.101917 80.841312 
L 397.027869 72.385603 
L 397.612456 68.422752 
L 398.297319 64.688314 
L 399.090992 61.219987 
L 400.008409 58.064342 
L 401.064506 55.287907 
L 402.261416 52.943904 
L 403.603406 51.070032 
L 405.090476 49.672944 
L 406.707692 48.739334 
L 408.414515 48.180499 
L 410.164009 47.901082 
L 411.913504 47.825683 
L 415.275946 48.020832 
L 416.884627 48.258115 
L 418.47624 48.619584 
L 420.080654 49.120762 
L 421.721338 49.786042 
L 423.417494 50.617642 
L 426.920749 52.691098 
L 430.48161 55.126022 
L 435.719425 59.11105 
L 440.647878 63.193651 
L 446.87565 68.717693 
L 453.205832 74.663078 
L 462.260531 83.535696 
L 473.391154 94.772275 
L 492.827606 114.786115 
L 548.440184 172.536854 
L 546.556278 170.578714 
L 432.425255 228.679834 
L 432.425255 228.679834 
" clip-path="url(#pf28cdd87a1)" style="fill: none; stroke-dasharray: 2,3.3; stroke-dashoffset: 0; stroke: #000000; stroke-width: 2"/>
   </g>
   <g id="patch_9">
    <path d="M 373.023529 256.32 
L 373.023529 34.56 
" style="fill: none; stroke: #bcbcbc; stroke-width: 0.8; stroke-linejoin: miter; stroke-linecap: square"/>
   </g>
   <g id="patch_10">
    <path d="M 586.376471 256.32 
L 586.376471 34.56 
" style="fill: none; stroke: #bcbcbc; stroke-width: 0.8; stroke-linejoin: miter; stroke-linecap: square"/>
   </g>
   <g id="patch_11">
    <path d="M 373.023529 256.32 
L 586.376471 256.32 
" style="fill: none; stroke: #bcbcbc; stroke-width: 0.8; stroke-linejoin: miter; stroke-linecap: square"/>
   </g>
   <g id="patch_12">
    <path d="M 373.023529 34.56 
L 586.376471 34.56 
" style="fill: none; stroke: #bcbcbc; stroke-width: 0.8; stroke-linejoin: miter; stroke-linecap: square"/>
   </g>
   <g id="text_28">
    <!-- CIE 1931 horseshoe -->
    <g transform="translate(393.4674 28.56) scale(0.1728 -0.1728)">
     <defs>
      <path id="DejaVuSans-43" d="M 4122 4306 
L 4122 3641 
Q 3803 3938 3442 4084 
Q 3081 4231 2675 4231 
Q 1875 4231 1450 3742 
Q 1025 3253 1025 2328 
Q 1025 1406 1450 917 
Q 1875 428 2675 428 
Q 3081 428 3442 575 
Q 3803 722 4122 1019 
L 4122 359 
Q 3791 134 3420 21 
Q 3050 -91 2638 -91 
Q 1578 -91 968 557 
Q 359 1206 359 2328 
Q 359 3453 968 4101 
Q 1578 4750 2638 4750 
Q 3056 4750 3426 4639 
Q 3797 4528 4122 4306 
z
" transform="scale(0.015625)"/>
      <path id="DejaVuSans-49" d="M 628 4666 
L 1259 4666 
L 1259 0 
L 628 0 
L 628 4666 
z
" transform="scale(0.015625)"/>
      <path id="DejaVuSans-20" transform="scale(0.015625)"/>
      <path id="DejaVuSans-39" d="M 703 97 
L 703 672 
Q 941 559 1184 500 
Q 1428 441 1663 441 
Q 2288 441 2617 861 
Q 2947 1281 2994 2138 
Q 2813 1869 2534 1725 
Q 2256 1581 1919 1581 
Q 1219 1581 811 2004 
Q 403 2428 403 3163 
Q 403 3881 828 4315 
Q 1253 4750 1959 4750 
Q 2769 4750 3195 4129 
Q 3622 3509 3622 2328 
Q 3622 1225 3098 567 
Q 2575 -91 1691 -91 
Q 1453 -91 1209 -44 
Q 966 3 703 97 
z
M 1959 2075 
Q 2384 2075 2632 2365 
Q 2881 2656 2881 3163 
Q 2881 3666 2632 3958 
Q 2384 4250 1959 4250 
Q 1534 4250 1286 3958 
Q 1038 3666 1038 3163 
Q 1038 2656 1286 2365 
Q 1534 2075 1959 2075 
z
" transform="scale(0.015625)"/>
      <path id="DejaVuSans-33" d="M 2597 2516 
Q 3050 2419 3304 2112 
Q 3559 1806 3559 1356 
Q 3559 666 3084 287 
Q 2609 -91 1734 -91 
Q 1441 -91 1130 -33 
Q 819 25 488 141 
L 488 750 
Q 750 597 1062 519 
Q 1375 441 1716 441 
Q 2309 441 2620 675 
Q 2931 909 2931 1356 
Q 2931 1769 2642 2001 
Q 2353 2234 1838 2234 
L 1294 2234 
L 1294 2753 
L 1863 2753 
Q 2328 2753 2575 2939 
Q 2822 3125 2822 3475 
Q 2822 3834 2567 4026 
Q 2313 4219 1838 4219 
Q 1578 4219 1281 4162 
Q 984 4106 628 3988 
L 628 4550 
Q 988 4650 1302 4700 
Q 1616 4750 1894 4750 
Q 2613 4750 3031 4423 
Q 3450 4097 3450 3541 
Q 3450 3153 3228 2886 
Q 3006 2619 2597 2516 
z
" transform="scale(0.015625)"/>
      <path id="DejaVuSans-73" d="M 2834 3397 
L 2834 2853 
Q 2591 2978 2328 3040 
Q 2066 3103 1784 3103 
Q 1356 3103 1142 2972 
Q 928 2841 928 2578 
Q 928 2378 1081 2264 
Q 1234 2150 1697 2047 
L 1894 2003 
Q 2506 1872 2764 1633 
Q 3022 1394 3022 966 
Q 3022 478 2636 193 
Q 2250 -91 1575 -91 
Q 1294 -91 989 -36 
Q 684 19 347 128 
L 347 722 
Q 666 556 975 473 
Q 1284 391 1588 391 
Q 1994 391 2212 530 
Q 2431 669 2431 922 
Q 2431 1156 2273 1281 
Q 2116 1406 1581 1522 
L 1381 1569 
Q 847 1681 609 1914 
Q 372 2147 372 2553 
Q 372 3047 722 3315 
Q 1072 3584 1716 3584 
Q 2034 3584 2315 3537 
Q 2597 3491 2834 3397 
z
" transform="scale(0.015625)"/>
     </defs>
     <use xlink:href="#DejaVuSans-43"/>
     <use xlink:href="#DejaVuSans-49" transform="translate(69.824219 0)"/>
     <use xlink:href="#DejaVuSans-45" transform="translate(99.316406 0)"/>
     <use xlink:href="#DejaVuSans-20" transform="translate(162.5 0)"/>
     <use xlink:href="#DejaVuSans-31" transform="translate(194.287109 0)"/>
     <use xlink:href="#DejaVuSans-39" transform="translate(257.910156 0)"/>
     <use xlink:href="#DejaVuSans-33" transform="translate(321.533203 0)"/>
     <use xlink:href="#DejaVuSans-31" transform="translate(385.15625 0)"/>
     <use xlink:href="#DejaVuSans-20" transform="translate(448.779297 0)"/>
     <use xlink:href="#DejaVuSans-68" transform="translate(480.566406 0)"/>
     <use xlink:href="#DejaVuSans-6f" transform="translate(543.945312 0)"/>
     <use xlink:href="#DejaVuSans-72" transform="translate(605.126953 0)"/>
     <use xlink:href="#DejaVuSans-73" transform="translate(646.240234 0)"/>
     <use xlink:href="#DejaVuSans-65" transform="translate(698.339844 0)"/>
     <use xlink:href="#DejaVuSans-73" transform="translate(759.863281 0)"/>
     <use xlink:href="#DejaVuSans-68" transform="translate(811.962891 0)"/>
     <use xlink:href="#DejaVuSans-6f" transform="translate(875.341797 0)"/>
     <use xlink:href="#DejaVuSans-65" transform="translate(936.523438 0)"/>
    </g>
   </g>
   <g id="legend_2">
    <g id="patch_13">
     <path d="M 467.990846 250.32 
L 577.976471 250.32 
Q 580.376471 250.32 580.376471 247.92 
L 580.376471 196.27875 
Q 580.376471 193.87875 577.976471 193.87875 
L 467.990846 193.87875 
Q 465.590846 193.87875 465.590846 196.27875 
L 465.590846 247.92 
Q 465.590846 250.32 467.990846 250.32 
z
" style="fill: #eeeeee; opacity: 0.8; stroke: #cccccc; stroke-width: 0.5; stroke-linejoin: miter"/>
    </g>
    <g id="line2d_52">
     <path d="M 470.390846 203.596875 
L 482.390846 203.596875 
L 494.390846 203.596875 
" style="fill: none; stroke-dasharray: 2,3.3; stroke-dashoffset: 0; stroke: #000000; stroke-width: 2"/>
    </g>
    <g id="text_29">
     <!-- CIE 170-2 -->
     <g transform="translate(503.990846 207.796875) scale(0.12 -0.12)">
      <defs>
       <path id="DejaVuSans-2d" d="M 313 2009 
L 1997 2009 
L 1997 1497 
L 313 1497 
L 313 2009 
z
" transform="scale(0.015625)"/>
      </defs>
      <use xlink:href="#DejaVuSans-43"/>
      <use xlink:href="#DejaVuSans-49" transform="translate(69.824219 0)"/>
      <use xlink:href="#DejaVuSans-45" transform="translate(99.316406 0)"/>
      <use xlink:href="#DejaVuSans-20" transform="translate(162.5 0)"/>
      <use xlink:href="#DejaVuSans-31" transform="translate(194.287109 0)"/>
      <use xlink:href="#DejaVuSans-37" transform="translate(257.910156 0)"/>
      <use xlink:href="#DejaVuSans-30" transform="translate(321.533203 0)"/>
      <use xlink:href="#DejaVuSans-2d" transform="translate(385.15625 0)"/>
      <use xlink:href="#DejaVuSans-32" transform="translate(421.240234 0)"/>
     </g>
    </g>
    <g id="PathCollection_3">
     <path d="M 482.390846 227.260625 
C 483.716861 227.260625 484.988745 226.733793 485.926379 225.796159 
C 486.864014 224.858524 487.390846 223.586641 487.390846 222.260625 
C 487.390846 220.934609 486.864014 219.662726 485.926379 218.725091 
C 484.988745 217.787457 483.716861 217.260625 482.390846 217.260625 
C 481.06483 217.260625 479.792946 217.787457 478.855312 218.725091 
C 477.917677 219.662726 477.390846 220.934609 477.390846 222.260625 
C 477.390846 223.586641 477.917677 224.858524 478.855312 225.796159 
C 479.792946 226.733793 481.06483 227.260625 482.390846 227.260625 
L 482.390846 227.260625 
z
" style="fill: none; stroke: #000000; stroke-width: 0.5"/>
    </g>
    <g id="text_30">
     <!-- Background -->
     <g transform="translate(503.990846 225.410625) scale(0.12 -0.12)">
      <use xlink:href="#DejaVuSans-42"/>
      <use xlink:href="#DejaVuSans-61" transform="translate(68.603516 0)"/>
      <use xlink:href="#DejaVuSans-63" transform="translate(129.882812 0)"/>
      <use xlink:href="#DejaVuSans-6b" transform="translate(184.863281 0)"/>
      <use xlink:href="#DejaVuSans-67" transform="translate(242.773438 0)"/>
      <use xlink:href="#DejaVuSans-72" transform="translate(306.25 0)"/>
      <use xlink:href="#DejaVuSans-6f" transform="translate(345.113281 0)"/>
      <use xlink:href="#DejaVuSans-75" transform="translate(406.294922 0)"/>
      <use xlink:href="#DejaVuSans-6e" transform="translate(469.673828 0)"/>
      <use xlink:href="#DejaVuSans-64" transform="translate(533.052734 0)"/>
     </g>
    </g>
    <g id="PathCollection_4">
     <g>
      <use xlink:href="#m190b2fe942" x="482.390846" y="239.874375" style="stroke: #000000; stroke-width: 2"/>
     </g>
    </g>
    <g id="text_31">
     <!-- Modulation -->
     <g transform="translate(503.990846 243.024375) scale(0.12 -0.12)">
      <use xlink:href="#DejaVuSans-4d"/>
      <use xlink:href="#DejaVuSans-6f" transform="translate(86.279297 0)"/>
      <use xlink:href="#DejaVuSans-64" transform="translate(147.460938 0)"/>
      <use xlink:href="#DejaVuSans-75" transform="translate(210.9375 0)"/>
      <use xlink:href="#DejaVuSans-6c" transform="translate(274.316406 0)"/>
      <use xlink:href="#DejaVuSans-61" transform="translate(302.099609 0)"/>
      <use xlink:href="#DejaVuSans-74" transform="translate(363.378906 0)"/>
      <use xlink:href="#DejaVuSans-69" transform="translate(402.587891 0)"/>
      <use xlink:href="#DejaVuSans-6f" transform="translate(430.371094 0)"/>
      <use xlink:href="#DejaVuSans-6e" transform="translate(491.552734 0)"/>
     </g>
    </g>
   </g>
  </g>
  <g id="axes_3">
   <g id="patch_14">
    <path d="M 629.047059 256.32 
L 842.4 256.32 
L 842.4 34.56 
L 629.047059 34.56 
z
" style="fill: #eeeeee"/>
   </g>
   <g id="patch_15">
    <path d="M 639.304412 256.32 
L 653.664706 256.32 
L 653.664706 178.81557 
L 639.304412 178.81557 
z
" clip-path="url(#p85735cacb6)" style="fill: #348abd"/>
   </g>
   <g id="patch_16">
    <path d="M 680.333824 256.32 
L 694.694118 256.32 
L 694.694118 131.567777 
L 680.333824 131.567777 
z
" clip-path="url(#p85735cacb6)" style="fill: #348abd"/>
   </g>
   <g id="patch_17">
    <path d="M 721.363235 256.32 
L 735.723529 256.32 
L 735.723529 45.129344 
L 721.363235 45.129344 
z
" clip-path="url(#p85735cacb6)" style="fill: #348abd"/>
   </g>
   <g id="patch_18">
    <path d="M 762.392647 256.32 
L 776.752941 256.32 
L 776.752941 186.125784 
L 762.392647 186.125784 
z
" clip-path="url(#p85735cacb6)" style="fill: #348abd"/>
   </g>
   <g id="patch_19">
    <path d="M 803.422059 256.32 
L 817.782353 256.32 
L 817.782353 195.091521 
L 803.422059 195.091521 
z
" clip-path="url(#p85735cacb6)" style="fill: #348abd"/>
   </g>
   <g id="patch_20">
    <path d="M 653.664706 256.32 
L 668.025 256.32 
L 668.025 178.809617 
L 653.664706 178.809617 
z
" clip-path="url(#p85735cacb6)" style="fill: #a60628"/>
   </g>
   <g id="patch_21">
    <path d="M 694.694118 256.32 
L 709.054412 256.32 
L 709.054412 131.57204 
L 694.694118 131.57204 
z
" clip-path="url(#p85735cacb6)" style="fill: #a60628"/>
   </g>
   <g id="patch_22">
    <path d="M 735.723529 256.32 
L 750.083824 256.32 
L 750.083824 45.12 
L 735.723529 45.12 
z
" clip-path="url(#p85735cacb6)" style="fill: #a60628"/>
   </g>
   <g id="patch_23">
    <path d="M 776.752941 256.32 
L 791.113235 256.32 
L 791.113235 113.771885 
L 776.752941 113.771885 
z
" clip-path="url(#p85735cacb6)" style="fill: #a60628"/>
   </g>
   <g id="patch_24">
    <path d="M 817.782353 256.32 
L 832.142647 256.32 
L 832.142647 103.248785 
L 817.782353 103.248785 
z
" clip-path="url(#p85735cacb6)" style="fill: #a60628"/>
   </g>
   <g id="matplotlib.axis_5">
    <g id="xtick_11">
     <g id="line2d_53">
      <path d="M 653.664706 256.32 
L 653.664706 34.56 
" clip-path="url(#p85735cacb6)" style="fill: none; stroke-dasharray: 1.85,0.8; stroke-dashoffset: 0; stroke: #b2b2b2; stroke-width: 0.5"/>
     </g>
     <g id="line2d_54">
      <g>
       <use xlink:href="#m848f95face" x="653.664706" y="256.32" style="stroke: #000000; stroke-width: 0.8"/>
      </g>
     </g>
     <g id="text_32">
      <!-- $E_{sc}$ -->
      <g transform="translate(639.264706 275.016875) scale(0.2 -0.2)">
       <defs>
        <path id="Cmmi10-45" d="M 300 0 
Q 238 0 238 84 
Q 241 100 250 139 
Q 259 178 276 201 
Q 294 225 319 225 
Q 709 225 863 269 
Q 947 297 984 441 
L 1863 3956 
Q 1875 4019 1875 4044 
Q 1875 4113 1797 4122 
Q 1678 4147 1338 4147 
Q 1275 4147 1275 4231 
Q 1278 4247 1287 4286 
Q 1297 4325 1314 4348 
Q 1331 4372 1356 4372 
L 4825 4372 
Q 4891 4372 4891 4288 
L 4738 2963 
Q 4738 2947 4714 2926 
Q 4691 2906 4672 2906 
L 4616 2906 
Q 4550 2906 4550 2988 
Q 4588 3300 4588 3450 
Q 4588 3706 4500 3848 
Q 4413 3991 4267 4053 
Q 4122 4116 3945 4131 
Q 3769 4147 3481 4147 
L 2753 4147 
Q 2578 4147 2522 4117 
Q 2466 4088 2419 3928 
L 2034 2381 
L 2534 2381 
Q 2859 2381 3025 2426 
Q 3191 2472 3287 2615 
Q 3384 2759 3463 3072 
Q 3469 3094 3486 3111 
Q 3503 3128 3525 3128 
L 3584 3128 
Q 3647 3128 3647 3047 
L 3250 1466 
Q 3238 1409 3188 1409 
L 3128 1409 
Q 3066 1409 3066 1491 
Q 3128 1747 3128 1869 
Q 3128 2056 2959 2106 
Q 2791 2156 2509 2156 
L 1978 2156 
L 1544 416 
Q 1516 338 1516 275 
Q 1516 225 1734 225 
L 2509 225 
Q 2972 225 3259 297 
Q 3547 369 3736 526 
Q 3925 684 4062 928 
Q 4200 1172 4397 1638 
Q 4409 1678 4453 1678 
L 4513 1678 
Q 4538 1678 4556 1656 
Q 4575 1634 4575 1606 
Q 4575 1594 4569 1581 
L 3909 38 
Q 3897 0 3859 0 
L 300 0 
z
" transform="scale(0.015625)"/>
        <path id="Cmmi10-73" d="M 556 391 
Q 728 97 1247 97 
Q 1472 97 1675 173 
Q 1878 250 2011 403 
Q 2144 556 2144 775 
Q 2144 941 2025 1047 
Q 1906 1153 1734 1191 
L 1388 1259 
Q 1150 1319 997 1481 
Q 844 1644 844 1875 
Q 844 2159 998 2378 
Q 1153 2597 1406 2712 
Q 1659 2828 1931 2828 
Q 2222 2828 2451 2689 
Q 2681 2550 2681 2278 
Q 2681 2131 2598 2018 
Q 2516 1906 2369 1906 
Q 2284 1906 2223 1961 
Q 2163 2016 2163 2100 
Q 2163 2175 2205 2245 
Q 2247 2316 2317 2358 
Q 2388 2400 2463 2400 
Q 2406 2538 2251 2600 
Q 2097 2663 1919 2663 
Q 1756 2663 1593 2597 
Q 1431 2531 1332 2404 
Q 1234 2278 1234 2106 
Q 1234 1991 1315 1903 
Q 1397 1816 1516 1778 
L 1888 1703 
Q 2066 1666 2214 1570 
Q 2363 1475 2448 1329 
Q 2534 1184 2534 997 
Q 2534 759 2401 528 
Q 2269 297 2075 159 
Q 1734 -72 1241 -72 
Q 900 -72 615 84 
Q 331 241 331 550 
Q 331 725 432 854 
Q 534 984 709 984 
Q 813 984 883 921 
Q 953 859 953 756 
Q 953 609 843 500 
Q 734 391 588 391 
L 556 391 
z
" transform="scale(0.015625)"/>
        <path id="Cmmi10-63" d="M 750 763 
Q 750 484 892 290 
Q 1034 97 1300 97 
Q 1681 97 2032 272 
Q 2384 447 2606 756 
Q 2625 775 2656 775 
Q 2688 775 2720 739 
Q 2753 703 2753 672 
Q 2753 647 2741 634 
Q 2506 306 2109 117 
Q 1713 -72 1288 -72 
Q 981 -72 747 73 
Q 513 219 384 462 
Q 256 706 256 1013 
Q 256 1444 497 1869 
Q 738 2294 1138 2561 
Q 1538 2828 1978 2828 
Q 2266 2828 2495 2689 
Q 2725 2550 2725 2278 
Q 2725 2103 2623 1979 
Q 2522 1856 2350 1856 
Q 2247 1856 2176 1920 
Q 2106 1984 2106 2088 
Q 2106 2238 2215 2344 
Q 2325 2450 2472 2450 
L 2484 2450 
Q 2409 2559 2267 2611 
Q 2125 2663 1972 2663 
Q 1597 2663 1315 2342 
Q 1034 2022 892 1576 
Q 750 1131 750 763 
z
" transform="scale(0.015625)"/>
       </defs>
       <use xlink:href="#Cmmi10-45" transform="translate(0 0.6875)"/>
       <use xlink:href="#Cmmi10-73" transform="translate(73.779297 -16.31875) scale(0.7)"/>
       <use xlink:href="#Cmmi10-63" transform="translate(106.523438 -16.31875) scale(0.7)"/>
      </g>
     </g>
    </g>
    <g id="xtick_12">
     <g id="line2d_55">
      <path d="M 694.694118 256.32 
L 694.694118 34.56 
" clip-path="url(#p85735cacb6)" style="fill: none; stroke-dasharray: 1.85,0.8; stroke-dashoffset: 0; stroke: #b2b2b2; stroke-width: 0.5"/>
     </g>
     <g id="line2d_56">
      <g>
       <use xlink:href="#m848f95face" x="694.694118" y="256.32" style="stroke: #000000; stroke-width: 0.8"/>
      </g>
     </g>
     <g id="text_33">
      <!-- $E_{mc}$ -->
      <g transform="translate(677.494118 275.016875) scale(0.2 -0.2)">
       <defs>
        <path id="Cmmi10-6d" d="M 494 109 
Q 494 147 500 166 
L 978 2075 
Q 1025 2253 1025 2388 
Q 1025 2663 838 2663 
Q 638 2663 541 2423 
Q 444 2184 353 1819 
Q 353 1800 334 1789 
Q 316 1778 300 1778 
L 225 1778 
Q 203 1778 187 1801 
Q 172 1825 172 1844 
Q 241 2122 305 2315 
Q 369 2509 505 2668 
Q 641 2828 844 2828 
Q 1084 2828 1268 2676 
Q 1453 2525 1453 2291 
Q 1644 2541 1900 2684 
Q 2156 2828 2444 2828 
Q 2747 2828 2967 2673 
Q 3188 2519 3188 2234 
Q 3384 2513 3648 2670 
Q 3913 2828 4225 2828 
Q 4556 2828 4757 2648 
Q 4959 2469 4959 2138 
Q 4959 1875 4842 1503 
Q 4725 1131 4550 672 
Q 4459 450 4459 288 
Q 4459 97 4609 97 
Q 4859 97 5025 365 
Q 5191 634 5259 941 
Q 5278 978 5313 978 
L 5388 978 
Q 5413 978 5430 961 
Q 5447 944 5447 922 
Q 5447 916 5441 903 
Q 5353 541 5136 234 
Q 4919 -72 4594 -72 
Q 4369 -72 4209 83 
Q 4050 238 4050 459 
Q 4050 572 4103 709 
Q 4284 1191 4404 1569 
Q 4525 1947 4525 2234 
Q 4525 2413 4453 2538 
Q 4381 2663 4213 2663 
Q 3863 2663 3606 2448 
Q 3350 2234 3163 1881 
Q 3150 1819 3144 1784 
L 2731 141 
Q 2709 53 2632 -9 
Q 2556 -72 2463 -72 
Q 2388 -72 2330 -22 
Q 2272 28 2272 109 
Q 2272 147 2278 166 
L 2688 1797 
Q 2753 2059 2753 2234 
Q 2753 2413 2679 2538 
Q 2606 2663 2431 2663 
Q 2197 2663 2000 2559 
Q 1803 2456 1656 2286 
Q 1509 2116 1388 1881 
L 953 141 
Q 931 53 854 -9 
Q 778 -72 684 -72 
Q 606 -72 550 -22 
Q 494 28 494 109 
z
" transform="scale(0.015625)"/>
       </defs>
       <use xlink:href="#Cmmi10-45" transform="translate(0 0.6875)"/>
       <use xlink:href="#Cmmi10-6d" transform="translate(73.779297 -16.31875) scale(0.7)"/>
       <use xlink:href="#Cmmi10-63" transform="translate(135.234375 -16.31875) scale(0.7)"/>
      </g>
     </g>
    </g>
    <g id="xtick_13">
     <g id="line2d_57">
      <path d="M 735.723529 256.32 
L 735.723529 34.56 
" clip-path="url(#p85735cacb6)" style="fill: none; stroke-dasharray: 1.85,0.8; stroke-dashoffset: 0; stroke: #b2b2b2; stroke-width: 0.5"/>
     </g>
     <g id="line2d_58">
      <g>
       <use xlink:href="#m848f95face" x="735.723529" y="256.32" style="stroke: #000000; stroke-width: 0.8"/>
      </g>
     </g>
     <g id="text_34">
      <!-- $E_{lc}$ -->
      <g transform="translate(722.523529 275.016875) scale(0.2 -0.2)">
       <defs>
        <path id="Cmmi10-6c" d="M 281 519 
Q 281 538 286 575 
Q 291 613 295 648 
Q 300 684 300 703 
L 1094 3872 
Q 1119 3981 1125 4044 
Q 1125 4147 709 4147 
Q 647 4147 647 4231 
Q 650 4247 661 4287 
Q 672 4328 689 4350 
Q 706 4372 738 4372 
L 1600 4441 
Q 1678 4441 1678 4359 
L 756 678 
Q 709 575 709 372 
Q 709 97 897 97 
Q 1094 97 1192 342 
Q 1291 588 1369 941 
Q 1381 978 1422 978 
L 1497 978 
Q 1522 978 1539 958 
Q 1556 938 1556 916 
Q 1481 606 1420 426 
Q 1359 247 1225 87 
Q 1091 -72 884 -72 
Q 628 -72 454 93 
Q 281 259 281 519 
z
" transform="scale(0.015625)"/>
       </defs>
       <use xlink:href="#Cmmi10-45" transform="translate(0 0.6875)"/>
       <use xlink:href="#Cmmi10-6c" transform="translate(73.779297 -16.31875) scale(0.7)"/>
       <use xlink:href="#Cmmi10-63" transform="translate(94.628906 -16.31875) scale(0.7)"/>
      </g>
     </g>
    </g>
    <g id="xtick_14">
     <g id="line2d_59">
      <path d="M 776.752941 256.32 
L 776.752941 34.56 
" clip-path="url(#p85735cacb6)" style="fill: none; stroke-dasharray: 1.85,0.8; stroke-dashoffset: 0; stroke: #b2b2b2; stroke-width: 0.5"/>
     </g>
     <g id="line2d_60">
      <g>
       <use xlink:href="#m848f95face" x="776.752941" y="256.32" style="stroke: #000000; stroke-width: 0.8"/>
      </g>
     </g>
     <g id="text_35">
      <!-- $E_{rh}$ -->
      <g transform="translate(761.452941 275.016875) scale(0.2 -0.2)">
       <defs>
        <path id="Cmmi10-72" d="M 494 109 
Q 494 147 500 166 
L 978 2075 
Q 1025 2253 1025 2388 
Q 1025 2663 838 2663 
Q 638 2663 541 2423 
Q 444 2184 353 1819 
Q 353 1800 334 1789 
Q 316 1778 300 1778 
L 225 1778 
Q 203 1778 187 1801 
Q 172 1825 172 1844 
Q 241 2122 305 2315 
Q 369 2509 505 2668 
Q 641 2828 844 2828 
Q 1066 2828 1233 2700 
Q 1400 2572 1441 2363 
Q 1603 2575 1811 2701 
Q 2019 2828 2266 2828 
Q 2469 2828 2623 2709 
Q 2778 2591 2778 2388 
Q 2778 2225 2676 2104 
Q 2575 1984 2406 1984 
Q 2303 1984 2233 2048 
Q 2163 2113 2163 2216 
Q 2163 2356 2266 2467 
Q 2369 2578 2503 2578 
Q 2400 2663 2253 2663 
Q 1978 2663 1775 2467 
Q 1572 2272 1409 1972 
L 953 141 
Q 931 53 854 -9 
Q 778 -72 684 -72 
Q 606 -72 550 -22 
Q 494 28 494 109 
z
" transform="scale(0.015625)"/>
        <path id="Cmmi10-68" d="M 341 116 
Q 341 153 347 172 
L 1275 3872 
Q 1300 3981 1306 4044 
Q 1306 4147 891 4147 
Q 825 4147 825 4231 
Q 828 4247 839 4287 
Q 850 4328 867 4350 
Q 884 4372 916 4372 
L 1778 4441 
L 1797 4441 
Q 1797 4434 1819 4423 
Q 1841 4413 1844 4409 
Q 1856 4378 1856 4359 
L 1356 2363 
Q 1750 2828 2291 2828 
Q 2516 2828 2680 2750 
Q 2844 2672 2936 2514 
Q 3028 2356 3028 2138 
Q 3028 1875 2911 1503 
Q 2794 1131 2619 672 
Q 2528 463 2528 288 
Q 2528 97 2675 97 
Q 2925 97 3092 364 
Q 3259 631 3328 941 
Q 3341 978 3378 978 
L 3456 978 
Q 3481 978 3497 961 
Q 3513 944 3513 922 
Q 3513 916 3506 903 
Q 3450 672 3339 448 
Q 3228 225 3059 76 
Q 2891 -72 2663 -72 
Q 2438 -72 2278 83 
Q 2119 238 2119 459 
Q 2119 578 2169 709 
Q 2350 1191 2470 1569 
Q 2591 1947 2591 2234 
Q 2591 2419 2519 2541 
Q 2447 2663 2278 2663 
Q 1934 2663 1678 2452 
Q 1422 2241 1234 1894 
L 800 147 
Q 775 50 703 -11 
Q 631 -72 538 -72 
Q 456 -72 398 -17 
Q 341 38 341 116 
z
" transform="scale(0.015625)"/>
       </defs>
       <use xlink:href="#Cmmi10-45" transform="translate(0 0.6875)"/>
       <use xlink:href="#Cmmi10-72" transform="translate(73.779297 -16.31875) scale(0.7)"/>
       <use xlink:href="#Cmmi10-68" transform="translate(105.361328 -16.31875) scale(0.7)"/>
      </g>
     </g>
    </g>
    <g id="xtick_15">
     <g id="line2d_61">
      <path d="M 817.782353 256.32 
L 817.782353 34.56 
" clip-path="url(#p85735cacb6)" style="fill: none; stroke-dasharray: 1.85,0.8; stroke-dashoffset: 0; stroke: #b2b2b2; stroke-width: 0.5"/>
     </g>
     <g id="line2d_62">
      <g>
       <use xlink:href="#m848f95face" x="817.782353" y="256.32" style="stroke: #000000; stroke-width: 0.8"/>
      </g>
     </g>
     <g id="text_36">
      <!-- $E_{mel}$ -->
      <g transform="translate(798.182353 275.016875) scale(0.2 -0.2)">
       <defs>
        <path id="Cmmi10-65" d="M 1288 -72 
Q 981 -72 751 87 
Q 522 247 401 517 
Q 281 788 281 1088 
Q 281 1544 511 1945 
Q 741 2347 1134 2587 
Q 1528 2828 1978 2828 
Q 2253 2828 2458 2686 
Q 2663 2544 2663 2278 
Q 2663 1909 2369 1729 
Q 2075 1550 1706 1508 
Q 1338 1466 891 1466 
L 872 1466 
Q 769 1084 769 813 
Q 769 528 900 312 
Q 1031 97 1300 97 
Q 1681 97 2032 272 
Q 2384 447 2606 756 
Q 2625 775 2656 775 
Q 2688 775 2720 739 
Q 2753 703 2753 672 
Q 2753 647 2741 634 
Q 2506 306 2109 117 
Q 1713 -72 1288 -72 
z
M 909 1631 
Q 1281 1631 1597 1665 
Q 1913 1700 2169 1839 
Q 2425 1978 2425 2272 
Q 2425 2391 2359 2480 
Q 2294 2569 2189 2616 
Q 2084 2663 1972 2663 
Q 1700 2663 1483 2516 
Q 1266 2369 1125 2133 
Q 984 1897 909 1631 
z
" transform="scale(0.015625)"/>
       </defs>
       <use xlink:href="#Cmmi10-45" transform="translate(0 0.6875)"/>
       <use xlink:href="#Cmmi10-6d" transform="translate(73.779297 -16.31875) scale(0.7)"/>
       <use xlink:href="#Cmmi10-65" transform="translate(135.234375 -16.31875) scale(0.7)"/>
       <use xlink:href="#Cmmi10-6c" transform="translate(167.773438 -16.31875) scale(0.7)"/>
      </g>
     </g>
    </g>
   </g>
   <g id="matplotlib.axis_6">
    <g id="ytick_14">
     <g id="line2d_63">
      <path d="M 629.047059 256.32 
L 842.4 256.32 
" clip-path="url(#p85735cacb6)" style="fill: none; stroke-dasharray: 1.85,0.8; stroke-dashoffset: 0; stroke: #b2b2b2; stroke-width: 0.5"/>
     </g>
     <g id="line2d_64">
      <g>
       <use xlink:href="#m5ec08e981a" x="629.047059" y="256.32" style="stroke: #000000; stroke-width: 0.8"/>
      </g>
     </g>
     <g id="text_37">
      <!-- 0.0 -->
      <g transform="translate(593.740809 263.918437) scale(0.2 -0.2)">
       <use xlink:href="#DejaVuSans-30"/>
       <use xlink:href="#DejaVuSans-2e" transform="translate(63.623047 0)"/>
       <use xlink:href="#DejaVuSans-30" transform="translate(95.410156 0)"/>
      </g>
     </g>
    </g>
    <g id="ytick_15">
     <g id="line2d_65">
      <path d="M 629.047059 175.638624 
L 842.4 175.638624 
" clip-path="url(#p85735cacb6)" style="fill: none; stroke-dasharray: 1.85,0.8; stroke-dashoffset: 0; stroke: #b2b2b2; stroke-width: 0.5"/>
     </g>
     <g id="line2d_66">
      <g>
       <use xlink:href="#m5ec08e981a" x="629.047059" y="175.638624" style="stroke: #000000; stroke-width: 0.8"/>
      </g>
     </g>
     <g id="text_38">
      <!-- 0.1 -->
      <g transform="translate(593.740809 183.237061) scale(0.2 -0.2)">
       <use xlink:href="#DejaVuSans-30"/>
       <use xlink:href="#DejaVuSans-2e" transform="translate(63.623047 0)"/>
       <use xlink:href="#DejaVuSans-31" transform="translate(95.410156 0)"/>
      </g>
     </g>
    </g>
    <g id="ytick_16">
     <g id="line2d_67">
      <path d="M 629.047059 94.957248 
L 842.4 94.957248 
" clip-path="url(#p85735cacb6)" style="fill: none; stroke-dasharray: 1.85,0.8; stroke-dashoffset: 0; stroke: #b2b2b2; stroke-width: 0.5"/>
     </g>
     <g id="line2d_68">
      <g>
       <use xlink:href="#m5ec08e981a" x="629.047059" y="94.957248" style="stroke: #000000; stroke-width: 0.8"/>
      </g>
     </g>
     <g id="text_39">
      <!-- 0.2 -->
      <g transform="translate(593.740809 102.555685) scale(0.2 -0.2)">
       <use xlink:href="#DejaVuSans-30"/>
       <use xlink:href="#DejaVuSans-2e" transform="translate(63.623047 0)"/>
       <use xlink:href="#DejaVuSans-32" transform="translate(95.410156 0)"/>
      </g>
     </g>
    </g>
    <g id="text_40">
     <!-- $\alpha$-opic irradiance -->
     <g transform="translate(586.716809 206.136) rotate(-90) scale(0.144 -0.144)">
      <defs>
       <path id="Cmmi10-ae" d="M 1288 -72 
Q 984 -72 748 72 
Q 513 216 384 459 
Q 256 703 256 1013 
Q 256 1447 498 1872 
Q 741 2297 1142 2562 
Q 1544 2828 1984 2828 
Q 2309 2828 2556 2658 
Q 2803 2488 2931 2205 
Q 3059 1922 3059 1600 
L 3066 1172 
Q 3284 1475 3436 1801 
Q 3588 2128 3669 2478 
Q 3681 2516 3719 2516 
L 3794 2516 
Q 3853 2516 3853 2456 
Q 3853 2450 3847 2438 
Q 3772 2144 3659 1873 
Q 3547 1603 3395 1350 
Q 3244 1097 3066 891 
Q 3066 97 3250 97 
Q 3369 97 3445 167 
Q 3522 238 3580 341 
Q 3638 444 3653 447 
L 3731 447 
Q 3781 447 3781 384 
Q 3781 225 3598 76 
Q 3416 -72 3238 -72 
Q 3006 -72 2853 78 
Q 2700 228 2644 469 
Q 2344 213 1994 70 
Q 1644 -72 1288 -72 
z
M 1300 97 
Q 1984 97 2613 659 
Q 2609 697 2603 751 
Q 2597 806 2597 813 
L 2597 1503 
Q 2597 2663 1972 2663 
Q 1597 2663 1315 2342 
Q 1034 2022 892 1576 
Q 750 1131 750 763 
Q 750 484 892 290 
Q 1034 97 1300 97 
z
" transform="scale(0.015625)"/>
       <path id="DejaVuSans-70" d="M 1159 525 
L 1159 -1331 
L 581 -1331 
L 581 3500 
L 1159 3500 
L 1159 2969 
Q 1341 3281 1617 3432 
Q 1894 3584 2278 3584 
Q 2916 3584 3314 3078 
Q 3713 2572 3713 1747 
Q 3713 922 3314 415 
Q 2916 -91 2278 -91 
Q 1894 -91 1617 61 
Q 1341 213 1159 525 
z
M 3116 1747 
Q 3116 2381 2855 2742 
Q 2594 3103 2138 3103 
Q 1681 3103 1420 2742 
Q 1159 2381 1159 1747 
Q 1159 1113 1420 752 
Q 1681 391 2138 391 
Q 2594 391 2855 752 
Q 3116 1113 3116 1747 
z
" transform="scale(0.015625)"/>
      </defs>
      <use xlink:href="#Cmmi10-ae" transform="translate(0 0.015625)"/>
      <use xlink:href="#DejaVuSans-2d" transform="translate(63.916016 0.015625)"/>
      <use xlink:href="#DejaVuSans-6f" transform="translate(100 0.015625)"/>
      <use xlink:href="#DejaVuSans-70" transform="translate(161.181641 0.015625)"/>
      <use xlink:href="#DejaVuSans-69" transform="translate(224.658203 0.015625)"/>
      <use xlink:href="#DejaVuSans-63" transform="translate(252.441406 0.015625)"/>
      <use xlink:href="#DejaVuSans-20" transform="translate(307.421875 0.015625)"/>
      <use xlink:href="#DejaVuSans-69" transform="translate(339.208984 0.015625)"/>
      <use xlink:href="#DejaVuSans-72" transform="translate(366.992188 0.015625)"/>
      <use xlink:href="#DejaVuSans-72" transform="translate(408.105469 0.015625)"/>
      <use xlink:href="#DejaVuSans-61" transform="translate(449.21875 0.015625)"/>
      <use xlink:href="#DejaVuSans-64" transform="translate(510.498047 0.015625)"/>
      <use xlink:href="#DejaVuSans-69" transform="translate(573.974609 0.015625)"/>
      <use xlink:href="#DejaVuSans-61" transform="translate(601.757812 0.015625)"/>
      <use xlink:href="#DejaVuSans-6e" transform="translate(663.037109 0.015625)"/>
      <use xlink:href="#DejaVuSans-63" transform="translate(726.416016 0.015625)"/>
      <use xlink:href="#DejaVuSans-65" transform="translate(781.396484 0.015625)"/>
     </g>
    </g>
   </g>
   <g id="patch_25">
    <path d="M 629.047059 256.32 
L 629.047059 34.56 
" style="fill: none; stroke: #bcbcbc; stroke-width: 0.8; stroke-linejoin: miter; stroke-linecap: square"/>
   </g>
   <g id="patch_26">
    <path d="M 842.4 256.32 
L 842.4 34.56 
" style="fill: none; stroke: #bcbcbc; stroke-width: 0.8; stroke-linejoin: miter; stroke-linecap: square"/>
   </g>
   <g id="patch_27">
    <path d="M 629.047059 256.32 
L 842.4 256.32 
" style="fill: none; stroke: #bcbcbc; stroke-width: 0.8; stroke-linejoin: miter; stroke-linecap: square"/>
   </g>
   <g id="patch_28">
    <path d="M 629.047059 34.56 
L 842.4 34.56 
" style="fill: none; stroke: #bcbcbc; stroke-width: 0.8; stroke-linejoin: miter; stroke-linecap: square"/>
   </g>
   <g id="legend_3">
    <g id="patch_29">
     <path d="M 724.014375 79.3875 
L 834 79.3875 
Q 836.4 79.3875 836.4 76.9875 
L 836.4 42.96 
Q 836.4 40.56 834 40.56 
L 724.014375 40.56 
Q 721.614375 40.56 721.614375 42.96 
L 721.614375 76.9875 
Q 721.614375 79.3875 724.014375 79.3875 
z
" style="fill: #eeeeee; opacity: 0.8; stroke: #cccccc; stroke-width: 0.5; stroke-linejoin: miter"/>
    </g>
    <g id="patch_30">
     <path d="M 726.414375 54.478125 
L 750.414375 54.478125 
L 750.414375 46.078125 
L 726.414375 46.078125 
z
" style="fill: #348abd"/>
    </g>
    <g id="text_41">
     <!-- Background -->
     <g transform="translate(760.014375 54.478125) scale(0.12 -0.12)">
      <use xlink:href="#DejaVuSans-42"/>
      <use xlink:href="#DejaVuSans-61" transform="translate(68.603516 0)"/>
      <use xlink:href="#DejaVuSans-63" transform="translate(129.882812 0)"/>
      <use xlink:href="#DejaVuSans-6b" transform="translate(184.863281 0)"/>
      <use xlink:href="#DejaVuSans-67" transform="translate(242.773438 0)"/>
      <use xlink:href="#DejaVuSans-72" transform="translate(306.25 0)"/>
      <use xlink:href="#DejaVuSans-6f" transform="translate(345.113281 0)"/>
      <use xlink:href="#DejaVuSans-75" transform="translate(406.294922 0)"/>
      <use xlink:href="#DejaVuSans-6e" transform="translate(469.673828 0)"/>
      <use xlink:href="#DejaVuSans-64" transform="translate(533.052734 0)"/>
     </g>
    </g>
    <g id="patch_31">
     <path d="M 726.414375 72.091875 
L 750.414375 72.091875 
L 750.414375 63.691875 
L 726.414375 63.691875 
z
" style="fill: #a60628"/>
    </g>
    <g id="text_42">
     <!-- Modulation -->
     <g transform="translate(760.014375 72.091875) scale(0.12 -0.12)">
      <use xlink:href="#DejaVuSans-4d"/>
      <use xlink:href="#DejaVuSans-6f" transform="translate(86.279297 0)"/>
      <use xlink:href="#DejaVuSans-64" transform="translate(147.460938 0)"/>
      <use xlink:href="#DejaVuSans-75" transform="translate(210.9375 0)"/>
      <use xlink:href="#DejaVuSans-6c" transform="translate(274.316406 0)"/>
      <use xlink:href="#DejaVuSans-61" transform="translate(302.099609 0)"/>
      <use xlink:href="#DejaVuSans-74" transform="translate(363.378906 0)"/>
      <use xlink:href="#DejaVuSans-69" transform="translate(402.587891 0)"/>
      <use xlink:href="#DejaVuSans-6f" transform="translate(430.371094 0)"/>
      <use xlink:href="#DejaVuSans-6e" transform="translate(491.552734 0)"/>
     </g>
    </g>
   </g>
  </g>
 </g>
 <defs>
  <clipPath id="p88321d9ec2">
   <rect x="117" y="34.56" width="213.352941" height="221.76"/>
  </clipPath>
  <clipPath id="pf28cdd87a1">
   <rect x="373.023529" y="34.56" width="213.352941" height="221.76"/>
  </clipPath>
  <clipPath id="p85735cacb6">
   <rect x="629.047059" y="34.56" width="213.352941" height="221.76"/>
  </clipPath>
 </defs>
</svg>
